<?xml version="1.0" encoding="UTF-8"?>
<svg version="1.1" xmlns="http://www.w3.org/2000/svg" width="24" height="24">
<path d="M0 0 C2 1 2 1 2.75 2.875 C3 5 3 5 1 8 C0.83286431 10.62531524 0.83286431 10.62531524 1 13 C1.99 13 2.98 13 4 13 C4 12.34 4 11.68 4 11 C4.99 11.33 5.98 11.66 7 12 C6.75 13.875 6.75 13.875 6 16 C3.9375 17.25 3.9375 17.25 2 18 C3.32 18.33 4.64 18.66 6 19 C5.67 19.99 5.34 20.98 5 22 C3.06280622 22.05406122 1.12518079 22.09282025 -0.8125 22.125 C-1.89144531 22.14820312 -2.97039063 22.17140625 -4.08203125 22.1953125 C-7 22 -7 22 -10 20 C-10 18 -10 18 -8.5 16.375 C-8.005 15.92125 -7.51 15.4675 -7 15 C-7.33 14.01 -7.66 13.02 -8 12 C-7.01 11.67 -6.02 11.34 -5 11 C-5.0825 10.236875 -5.165 9.47375 -5.25 8.6875 C-5 6 -5 6 -3.0625 4.375 C-2.381875 3.92125 -1.70125 3.4675 -1 3 C-0.67 2.01 -0.34 1.02 0 0 Z M-3 8 C-2 10 -2 10 -2 10 Z M-2 10 C-1 12 -1 12 -1 12 Z M-6 19 C-6 19.33 -6 19.66 -6 20 C-4.02 20 -2.04 20 0 20 C0 19.67 0 19.34 0 19 C-1.98 19 -3.96 19 -6 19 Z " fill="#FFFFFF" transform="translate(13,0)"/>
</svg>
