<?xml version="1.0" encoding="UTF-8"?>
<svg version="1.1" xmlns="http://www.w3.org/2000/svg" width="214" height="235">
<path d="M0 0 C4.14545449 -0.14658609 8.29023274 -0.23450196 12.4375 -0.3125 C13.60216797 -0.35439453 14.76683594 -0.39628906 15.96679688 -0.43945312 C23.4559794 -0.54493457 29.05948922 0.18250306 35 5 C43.18062136 14.16683385 46.40552887 27.07854723 48 39 C48.11085937 39.75667969 48.22171875 40.51335937 48.3359375 41.29296875 C50.77186733 59.89162215 47.25685396 80.64181165 36 96 C31.90578781 99.89924971 28.16410342 102.22183203 22.46386719 102.31884766 C21.56538055 102.33871231 20.66689392 102.35857697 19.74118042 102.37904358 C18.76955963 102.39059982 17.79793884 102.40215607 16.796875 102.4140625 C15.77796173 102.43347397 14.75904846 102.45288544 13.70925903 102.47288513 C10.38959177 102.53328074 7.06990213 102.57950189 3.75 102.625 C1.4793205 102.66279779 -0.79135017 102.7011295 -3.06201172 102.73999023 C-20.37470071 103.02205794 -37.6854742 103.12815352 -55 103 C-54.67 104.32 -54.34 105.64 -54 107 C-38.16 107 -22.32 107 -6 107 C-4.04591721 110.90816559 -4.68387855 115.70186619 -4.625 120 C-4.56892578 121.50626953 -4.56892578 121.50626953 -4.51171875 123.04296875 C-4.41795714 131.09604923 -6.19073143 137.72480903 -11.64672852 143.84814453 C-24.01027459 155.59850887 -41.89395318 157.59743129 -58.11987305 157.47680664 C-72.35648437 157.0773532 -89.17338774 153.8477792 -99.62890625 143.3671875 C-104.23104531 138.24384233 -106.23867812 134.06119269 -106.29052734 127.05151367 C-106.30328705 125.87646774 -106.31604675 124.70142181 -106.32919312 123.49076843 C-106.33253159 121.59848259 -106.33253159 121.59848259 -106.3359375 119.66796875 C-106.3425943 118.36225418 -106.3492511 117.05653961 -106.35610962 115.71125793 C-106.36806192 112.94996841 -106.37179266 110.18880379 -106.37060547 107.42749023 C-106.37040259 103.90701824 -106.3976803 100.38735631 -106.43214989 96.86707592 C-106.45987804 93.48819616 -106.45857109 90.10946061 -106.4609375 86.73046875 C-106.47530853 85.47501755 -106.48967957 84.21956635 -106.50448608 82.92607117 C-106.45198122 72.81888526 -104.23369244 66.40191785 -97 59 C-91.56868669 55.17116877 -86.91690117 53.88909665 -80.36450195 53.82641602 C-79.23264969 53.81292618 -78.10079742 53.79943634 -76.93464661 53.78553772 C-75.71484604 53.77509933 -74.49504547 53.76466095 -73.23828125 53.75390625 C-70.64908527 53.72095956 -68.05989264 53.68774806 -65.47070312 53.65429688 C-61.39367837 53.60593997 -57.31662718 53.56213859 -53.23950195 53.52319336 C-49.30145319 53.48501433 -45.36366008 53.43180292 -41.42578125 53.37890625 C-40.21610184 53.3704921 -39.00642242 53.36207794 -37.76008606 53.35340881 C-27.11481953 53.19903753 -18.61120898 52.61120898 -10.75 44.75 C-10.1725 44.1725 -9.595 43.595 -9 43 C-8.34 43 -7.68 43 -7 43 C-6.731875 42.319375 -6.46375 41.63875 -6.1875 40.9375 C-5.31295707 38.77415695 -4.38872321 36.63073998 -3.4375 34.5 C-1.40401777 29.54891283 -0.86734316 25.15295178 -0.68359375 19.82421875 C-0.64169922 18.66728516 -0.59980469 17.51035156 -0.55664062 16.31835938 C-0.51732422 15.12017578 -0.47800781 13.92199219 -0.4375 12.6875 C-0.37272461 10.8612207 -0.37272461 10.8612207 -0.30664062 8.99804688 C-0.20078504 5.9988053 -0.09870274 2.99948409 0 0 Z M-36 127 C-37.1576585 128.87957244 -37.1576585 128.87957244 -37 131 C-35.65194009 134.20966645 -34.46598569 136.53401431 -32 139 C-28.92151521 139.61807417 -26.07821782 139.61673513 -23 139 C-19.69207244 135.77083262 -19.01699678 133.98581321 -18.9375 129.375 C-20.21672856 125.3115681 -21.29507485 124.05829175 -25 122 C-30.49127086 120.97038671 -32.61966472 122.75043565 -36 127 Z " fill="#FEDE59" transform="translate(159,53)"/>
<path d="M0 0 C0.83060944 -0.0033284 1.66121887 -0.0066568 2.51699829 -0.01008606 C4.26327974 -0.01511771 6.00957068 -0.01749556 7.75585938 -0.01733398 C10.39990363 -0.01951955 13.04352934 -0.03771298 15.6875 -0.05664062 C29.38898094 -0.10377087 41.95056643 0.31033078 52.9140625 9.60546875 C60.40532742 18.63905291 61.3486738 26.42390993 61.3046875 37.7890625 C61.30660095 38.88839615 61.3085144 39.9877298 61.31048584 41.12037659 C61.31184148 43.43580353 61.3081886 45.75123823 61.29980469 48.06665039 C61.28910693 51.59083313 61.29971614 55.11450496 61.3125 58.63867188 C61.3111781 60.89713653 61.30861506 63.15560087 61.3046875 65.4140625 C61.30873596 66.45807724 61.31278442 67.50209198 61.31695557 68.57774353 C61.25208148 78.81214905 60.01013986 87.29690547 53.0390625 95.16796875 C39.51189971 105.90787115 17.88885615 102.25439776 1.61743164 102.07202148 C-1.28239533 102.04171802 -4.1820961 102.02403677 -7.08203125 102.0078125 C-7.95613144 101.99435287 -8.83023163 101.98089325 -9.7308197 101.96702576 C-19.01785019 101.92930628 -28.09497849 103.73881037 -35.13671875 110.1484375 C-47.14215394 122.90009718 -45.11427272 138.72702607 -44.9609375 155.16796875 C-48.79412369 155.25586519 -52.62704678 155.30865962 -56.4609375 155.35546875 C-57.53859375 155.38060547 -58.61625 155.40574219 -59.7265625 155.43164062 C-67.12420581 155.499302 -72.93057532 155.03126562 -79.1328125 150.625 C-92.54351778 136.64998286 -93.28417275 116.8960266 -93.1171875 98.54296875 C-92.99361724 92.59512021 -92.36902511 86.95278727 -90.9609375 81.16796875 C-90.78949219 80.32621094 -90.61804688 79.48445313 -90.44140625 78.6171875 C-88.20333253 69.33279137 -82.86022494 61.57458197 -74.7109375 56.54296875 C-69.24165606 53.52963853 -64.72482944 53.02245724 -58.53027344 53.05444336 C-57.78841797 53.05429733 -57.0465625 53.05415131 -56.28222656 53.05400085 C-53.83655853 53.05469606 -51.39096719 53.06247009 -48.9453125 53.0703125 C-47.24709108 53.07217807 -45.54886912 53.07360132 -43.85064697 53.07460022 C-39.38560495 53.07841443 -34.92059556 53.08823536 -30.45556641 53.0993042 C-25.89746543 53.10954188 -21.33935917 53.11410289 -16.78125 53.11914062 C-7.84113151 53.12985861 1.09896278 53.14692188 10.0390625 53.16796875 C10.0390625 51.18796875 10.0390625 49.20796875 10.0390625 47.16796875 C9.12157982 47.19009178 9.12157982 47.19009178 8.18556213 47.21266174 C1.84348399 47.3645936 -4.49872708 47.50946047 -10.84106445 47.65014648 C-13.21089814 47.70365519 -15.58069129 47.75899106 -17.95043945 47.81616211 C-21.34838107 47.89782633 -24.74641232 47.97300867 -28.14453125 48.046875 C-29.21118515 48.07391006 -30.27783905 48.10094513 -31.3768158 48.12879944 C-32.35775711 48.14889572 -33.33869843 48.168992 -34.34936523 48.18969727 C-35.65175392 48.21967552 -35.65175392 48.21967552 -36.98045349 48.2502594 C-38.9609375 48.16796875 -38.9609375 48.16796875 -39.9609375 47.16796875 C-40.2039148 43.12607811 -40.18950027 39.08056884 -40.20117188 35.03198242 C-40.21081635 33.00592022 -40.24179563 30.98089929 -40.2734375 28.95507812 C-40.28117187 27.02825195 -40.28117187 27.02825195 -40.2890625 25.0625 C-40.2984082 23.88534424 -40.30775391 22.70818848 -40.31738281 21.49536133 C-39.61272866 14.91746304 -36.31372325 10.86563755 -31.40234375 6.77734375 C-22.10679074 0.64971521 -10.80572812 0.01540827 0 0 Z M-24.9609375 19.16796875 C-26.67077483 23.10802868 -27.17697075 25.28721782 -26.1484375 29.48046875 C-23.41155789 32.84292084 -21.39439675 33.50726753 -17.1875 34.171875 C-14.74116035 34.3273534 -14.74116035 34.3273534 -11.9609375 32.73046875 C-9.38173338 29.42586347 -8.9609375 27.34450693 -8.9609375 23.16796875 C-10.54932684 19.59409273 -11.67728108 18.35707303 -14.9609375 16.16796875 C-19.31899098 15.70434604 -21.95455712 15.83947619 -24.9609375 19.16796875 Z " fill="#3D78A9" transform="translate(92.9609375,-0.16796875)"/>
<path d="M0 0 C0.77472656 0.00451172 1.54945312 0.00902344 2.34765625 0.01367188 C4.23180524 0.02530242 6.11591365 0.04323094 8 0.0625 C6.69704858 2.66840285 5.7008725 3.02440955 3 4.0625 C0.203125 4.2578125 0.203125 4.2578125 -2.75 4.1875 C-3.73484375 4.16945313 -4.7196875 4.15140625 -5.734375 4.1328125 C-6.85585937 4.09800781 -6.85585937 4.09800781 -8 4.0625 C-8.103125 4.701875 -8.20625 5.34125 -8.3125 6 C-8.539375 6.680625 -8.76625 7.36125 -9 8.0625 C-9.99 8.3925 -10.98 8.7225 -12 9.0625 C-12.33 11.3725 -12.66 13.6825 -13 16.0625 C-12.01 16.0625 -11.02 16.0625 -10 16.0625 C-9.34 16.0625 -8.68 16.0625 -8 16.0625 C-7.34 18.3725 -6.68 20.6825 -6 23.0625 C-6.66 23.0625 -7.32 23.0625 -8 23.0625 C-8.0825 24.279375 -8.165 25.49625 -8.25 26.75 C-8.81276033 30.94108354 -9.7264301 33.19812634 -13 36.0625 C-15.93685308 37.33177285 -18.9171868 38.22224889 -22 39.0625 C-25.11785113 39.70894661 -25.11785113 39.70894661 -26 42.0625 C-24.9171875 42.248125 -24.9171875 42.248125 -23.8125 42.4375 C-21.04278106 43.0529931 -18.6029646 43.94694374 -16 45.0625 C-16 45.3925 -16 45.7225 -16 46.0625 C-16.55461914 46.08755615 -17.10923828 46.1126123 -17.68066406 46.13842773 C-20.20398843 46.25477927 -22.72697536 46.37732754 -25.25 46.5 C-26.12269531 46.53931641 -26.99539062 46.57863281 -27.89453125 46.61914062 C-28.73886719 46.66103516 -29.58320312 46.70292969 -30.453125 46.74609375 C-31.22817383 46.78275146 -32.00322266 46.81940918 -32.80175781 46.85717773 C-35.02518075 47.00480915 -35.02518075 47.00480915 -37.22167969 47.64477539 C-37.80852539 47.78262451 -38.39537109 47.92047363 -39 48.0625 C-41.59502136 45.46747864 -40.23008771 38.44613893 -40.24023438 34.92651367 C-40.24987885 32.90045147 -40.28085813 30.87543054 -40.3125 28.84960938 C-40.31765625 27.56505859 -40.3228125 26.28050781 -40.328125 24.95703125 C-40.3374707 23.77987549 -40.34681641 22.60271973 -40.35644531 21.38989258 C-39.65179116 14.81199429 -36.35278575 10.7601688 -31.44140625 6.671875 C-22.10913256 0.52004018 -10.84152474 -0.12213156 0 0 Z M-25 19.0625 C-26.70983733 23.00255993 -27.21603325 25.18174907 -26.1875 29.375 C-23.45062039 32.73745209 -21.43345925 33.40179878 -17.2265625 34.06640625 C-14.78022285 34.22188465 -14.78022285 34.22188465 -12 32.625 C-9.42079588 29.32039472 -9 27.23903818 -9 23.0625 C-10.58838934 19.48862398 -11.71634358 18.25160428 -15 16.0625 C-19.35805348 15.59887729 -21.99361962 15.73400744 -25 19.0625 Z " fill="#518DBC" transform="translate(93,-0.0625)"/>
<path d="M0 0 C4.14545449 -0.14658609 8.29023274 -0.23450196 12.4375 -0.3125 C13.60216797 -0.35439453 14.76683594 -0.39628906 15.96679688 -0.43945312 C23.53594832 -0.54606089 28.96337729 0.2267977 35 5 C37.15625 7.28125 37.15625 7.28125 38.5 9.5 C38.9640625 10.2321875 39.428125 10.964375 39.90625 11.71875 C41.07075605 14.14757691 41.58892294 16.3466844 42 19 C40.35 18.34 38.7 17.68 37 17 C37 16.34 37 15.68 37 15 C36.34 15 35.68 15 35 15 C34.67 15.66 34.34 16.32 34 17 C34.33 15.02 34.66 13.04 35 11 C34.34 11 33.68 11 33 11 C32.67 9.68 32.34 8.36 32 7 C28.41672247 5.99782936 28.41672247 5.99782936 25 7 C24.67 5.68 24.34 4.36 24 3 C17.07 3 10.14 3 3 3 C3.05220703 5.62001953 3.05220703 5.62001953 3.10546875 8.29296875 C3.13360958 10.59113621 3.16090942 12.88931408 3.1875 15.1875 C3.21263672 16.33798828 3.23777344 17.48847656 3.26367188 18.67382812 C3.27333984 19.78564453 3.28300781 20.89746094 3.29296875 22.04296875 C3.3086792 23.06414795 3.32438965 24.08532715 3.34057617 25.13745117 C2.94659827 28.44884246 1.81261406 30.23848522 0 33 C-0.268125 34.093125 -0.53625 35.18625 -0.8125 36.3125 C-2.92682849 42.87804637 -7.25037589 48.16691726 -13 52 C-13.66 52 -14.32 52 -15 52 C-15 53.32 -15 54.64 -15 56 C-15.60328125 55.98839844 -16.2065625 55.97679687 -16.828125 55.96484375 C-17.62734375 55.95582031 -18.4265625 55.94679687 -19.25 55.9375 C-20.03890625 55.92589844 -20.8278125 55.91429687 -21.640625 55.90234375 C-23.93924671 55.99748538 -25.83050218 56.23683594 -28 57 C-28.495 57.99 -28.495 57.99 -29 59 C-31 58 -31 58 -32 57 C-34.45348136 56.89876644 -36.87810615 56.86031496 -39.33203125 56.8671875 C-40.07901779 56.86623077 -40.82600433 56.86527405 -41.59562683 56.86428833 C-43.18704309 56.86360568 -44.77846209 56.86546584 -46.36987305 56.86962891 C-48.76422726 56.87489385 -51.15838669 56.86973034 -53.55273438 56.86328125 C-61.30423971 56.8607022 -68.94303893 57.00547066 -76.66040039 57.84057617 C-79.54439602 58.03709596 -82.16959229 57.52139089 -85 57 C-85.66 57.66 -86.32 58.32 -87 59 C-88.175625 59.1546875 -88.175625 59.1546875 -89.375 59.3125 C-92.96571531 60.25292544 -93.84352469 62.03484645 -96 65 C-96.86625 65.804375 -97.7325 66.60875 -98.625 67.4375 C-102.63772269 71.76701658 -103.24470385 76.33866557 -103.31884766 82.09716797 C-103.33871735 83.27793915 -103.35858704 84.45871033 -103.37905884 85.67526245 C-103.39061005 86.93484772 -103.40216125 88.19443298 -103.4140625 89.4921875 C-103.43342865 90.79326447 -103.4527948 92.09434143 -103.4727478 93.43484497 C-103.52387939 96.87720764 -103.56360588 100.31960922 -103.60089111 103.762146 C-103.64105048 107.28163121 -103.6920881 110.80095723 -103.7421875 114.3203125 C-103.83872167 121.21342509 -103.92319776 128.10664008 -104 135 C-103.34 135 -102.68 135 -102 135 C-101.6596875 136.175625 -101.6596875 136.175625 -101.3125 137.375 C-100.21875 140.21875 -100.21875 140.21875 -97.375 141.3125 C-96.199375 141.6528125 -96.199375 141.6528125 -95 142 C-95 143.32 -95 144.64 -95 146 C-93.68 146 -92.36 146 -91 146 C-90.67 146.66 -90.34 147.32 -90 148 C-84.58906192 150.27828972 -78.75821762 151.03688175 -73 152 C-73 152.99 -73 153.98 -73 155 C-84.44561183 154.1521769 -94.23264716 149.60477479 -101.875 140.9375 C-105.21470244 136.32085251 -106.24854123 132.72776438 -106.29052734 127.05151367 C-106.30328705 125.87646774 -106.31604675 124.70142181 -106.32919312 123.49076843 C-106.33253159 121.59848259 -106.33253159 121.59848259 -106.3359375 119.66796875 C-106.3425943 118.36225418 -106.3492511 117.05653961 -106.35610962 115.71125793 C-106.36806192 112.94996841 -106.37179266 110.18880379 -106.37060547 107.42749023 C-106.37040259 103.90701824 -106.3976803 100.38735631 -106.43214989 96.86707592 C-106.45987804 93.48819616 -106.45857109 90.10946061 -106.4609375 86.73046875 C-106.47530853 85.47501755 -106.48967957 84.21956635 -106.50448608 82.92607117 C-106.45198122 72.81888526 -104.23369244 66.40191785 -97 59 C-91.56868669 55.17116877 -86.91690117 53.88909665 -80.36450195 53.82641602 C-79.23264969 53.81292618 -78.10079742 53.79943634 -76.93464661 53.78553772 C-75.71484604 53.77509933 -74.49504547 53.76466095 -73.23828125 53.75390625 C-70.64908527 53.72095956 -68.05989264 53.68774806 -65.47070312 53.65429688 C-61.39367837 53.60593997 -57.31662718 53.56213859 -53.23950195 53.52319336 C-49.30145319 53.48501433 -45.36366008 53.43180292 -41.42578125 53.37890625 C-40.21610184 53.3704921 -39.00642242 53.36207794 -37.76008606 53.35340881 C-27.11481953 53.19903753 -18.61120898 52.61120898 -10.75 44.75 C-10.1725 44.1725 -9.595 43.595 -9 43 C-8.34 43 -7.68 43 -7 43 C-6.731875 42.319375 -6.46375 41.63875 -6.1875 40.9375 C-5.31295707 38.77415695 -4.38872321 36.63073998 -3.4375 34.5 C-1.40401777 29.54891283 -0.86734316 25.15295178 -0.68359375 19.82421875 C-0.64169922 18.66728516 -0.59980469 17.51035156 -0.55664062 16.31835938 C-0.51732422 15.12017578 -0.47800781 13.92199219 -0.4375 12.6875 C-0.37272461 10.8612207 -0.37272461 10.8612207 -0.30664062 8.99804688 C-0.20078504 5.9988053 -0.09870274 2.99948409 0 0 Z " fill="#F9E990" transform="translate(159,53)"/>
<path d="M0 0 C0.66 0 1.32 0 2 0 C1.47731534 2.76276177 0.89130413 5.3260876 0 8 C0.32670903 10.00109278 0.65977214 12.00116131 1 14 C0.67 14.66 0.34 15.32 0 16 C-0.66 15.67 -1.32 15.34 -2 15 C-2 16.65 -2 18.3 -2 20 C1.63 20 5.26 20 9 20 C9 20.66 9 21.32 9 22 C9.66 22.33 10.32 22.66 11 23 C4.5417746 26.2291127 -6.62187617 25.80377357 -13.48046875 24.171875 C-15.76121831 23.23719552 -17.88708295 22.26557756 -20 21 C-19 18 -19 18 -17.29296875 17.0859375 C-16.59816406 16.85132812 -15.90335937 16.61671875 -15.1875 16.375 C-14.50042969 16.13523437 -13.81335938 15.89546875 -13.10546875 15.6484375 C-11 15 -11 15 -8.875 14.6171875 C-5.99045263 13.66769066 -5.16715364 11.42453732 -3.81640625 8.85546875 C-2.82508467 6.60246516 -2.29586375 4.44087591 -2 2 C-1.34 2 -0.68 2 0 2 C0 1.34 0 0.68 0 0 Z " fill="#4280B1" transform="translate(87,21)"/>
<path d="M0 0 C0.66 2.31 1.32 4.62 2 7 C1.34 7 0.68 7 0 7 C-0.0825 8.216875 -0.165 9.43375 -0.25 10.6875 C-0.80242016 14.8416996 -1.70312371 17.21033544 -5 20 C-7.7337813 20.70043345 -10.15399052 20.85769953 -13 21 C-13.33 20.34 -13.66 19.68 -14 19 C-13.38511719 18.84144531 -12.77023438 18.68289062 -12.13671875 18.51953125 C-6.98169459 17.04875246 -6.98169459 17.04875246 -2.875 13.75 C-1.72227812 10.12715979 -2.11626923 7.67088165 -3 4 C-3.66 3.01 -4.32 2.02 -5 1 C-2 0 -2 0 0 0 Z M-31 4 C-30.67 4 -30.34 4 -30 4 C-29.67 10.6 -29.34 17.2 -29 24 C-26.36 24.33 -23.72 24.66 -21 25 C-21.020625 24.05125 -21.04125 23.1025 -21.0625 22.125 C-21 19 -21 19 -20 17 C-18 17 -18 17 -16.5 18.375 C-16.005 18.91125 -15.51 19.4475 -15 20 C-14.34 20.66 -13.68 21.32 -13 22 C-13.639375 22.28875 -14.27875 22.5775 -14.9375 22.875 C-17.15206079 23.82823451 -17.15206079 23.82823451 -18 26 C-17.278125 26.12375 -16.55625 26.2475 -15.8125 26.375 C-13.04278106 26.9904931 -10.6029646 27.88444374 -8 29 C-8 29.33 -8 29.66 -8 30 C-8.55461914 30.02505615 -9.10923828 30.0501123 -9.68066406 30.07592773 C-12.20398843 30.19227927 -14.72697536 30.31482754 -17.25 30.4375 C-18.12269531 30.47681641 -18.99539062 30.51613281 -19.89453125 30.55664062 C-20.73886719 30.59853516 -21.58320312 30.64042969 -22.453125 30.68359375 C-23.61569824 30.73858032 -23.61569824 30.73858032 -24.80175781 30.79467773 C-27.32722445 30.97466143 -27.32722445 30.97466143 -31 32 C-31 22.76 -31 13.52 -31 4 Z " fill="#4682B1" transform="translate(85,16)"/>
<path d="M0 0 C0 3.55544679 -1.15908192 4.7878675 -3.3203125 7.5 C-8.80971248 12.40216184 -14.42689216 12.46534111 -21.3984375 12.51171875 C-22.92256256 12.53871353 -22.92256256 12.53871353 -24.47747803 12.56625366 C-27.77661285 12.62085142 -31.07558374 12.6545876 -34.375 12.6875 C-36.6365709 12.72025896 -38.89812729 12.75403573 -41.15966797 12.78881836 C-58.43870596 13.03838637 -75.71955542 13.12790126 -93 13 C-92.67 14.32 -92.34 15.64 -92 17 C-76.16 17 -60.32 17 -44 17 C-44 17.66 -44 18.32 -44 19 C-60.83 19 -77.66 19 -95 19 C-94.67 16.36 -94.34 13.72 -94 11 C-52.42 10.505 -52.42 10.505 -10 10 C-10 9.34 -10 8.68 -10 8 C-9.278125 7.79375 -8.55625 7.5875 -7.8125 7.375 C-4.0744694 5.54751837 -2.50753083 3.29561194 0 0 Z " fill="#F1E18F" transform="translate(197,143)"/>
<path d="M0 0 C1 2 1 2 0.58203125 3.8046875 C-0.98258402 8.01405853 -2.3398104 11.16630482 -6 14 C-6.66 14 -7.32 14 -8 14 C-8 14.66 -8 15.32 -8 16 C-8.66 16 -9.32 16 -10 16 C-10 15.34 -10 14.68 -10 14 C-10.66 14 -11.32 14 -12 14 C-12 14.99 -12 15.98 -12 17 C-16.95 18.485 -16.95 18.485 -22 20 C-22.66 19.34 -23.32 18.68 -24 18 C-23.34 18 -22.68 18 -22 18 C-21.67 17.34 -21.34 16.68 -21 16 C-20.01 16 -19.02 16 -18 16 C-19.32 14.02 -20.64 12.04 -22 10 C-20.783125 9.979375 -19.56625 9.95875 -18.3125 9.9375 C-15.55316782 9.62382814 -14.3522291 9.34804585 -12.35546875 7.375 C-11.14471077 5.64434882 -10.06217605 3.82561508 -9 2 C-7.02 3.32 -5.04 4.64 -3 6 C-3 4.35 -3 2.7 -3 1 C-2.01 0.67 -1.02 0.34 0 0 Z " fill="#FAD33C" transform="translate(150,184)"/>
<path d="M0 0 C0.33 0 0.66 0 1 0 C1 2.31 1 4.62 1 7 C-23.75 7 -48.5 7 -74 7 C-74.33 7.99 -74.66 8.98 -75 10 C-77.0625 11.1875 -77.0625 11.1875 -79 12 C-78.67 12.66 -78.34 13.32 -78 14 C-78.66 14 -79.32 14 -80 14 C-79.67 14.99 -79.34 15.98 -79 17 C-80.65 16.67 -82.3 16.34 -84 16 C-84 15.01 -84 14.02 -84 13 C-86.9719385 14.12451727 -89.33440687 15.22293791 -92 17 C-90.5304003 13.19390191 -88.61508531 11.8268074 -85.125 9.8125 C-84.26132813 9.30332031 -83.39765625 8.79414062 -82.5078125 8.26953125 C-77.89009237 5.93190034 -73.67810751 5.86009503 -68.56933594 5.88647461 C-67.45655273 5.88625557 -67.45655273 5.88625557 -66.32128906 5.8860321 C-63.87562103 5.88672731 -61.43002969 5.89450134 -58.984375 5.90234375 C-57.28615358 5.90420932 -55.58793162 5.90563257 -53.88970947 5.90663147 C-49.42466745 5.91044568 -44.95965806 5.92026661 -40.49462891 5.93133545 C-35.93652793 5.94157313 -31.37842167 5.94613414 -26.8203125 5.95117188 C-17.88019401 5.96188986 -8.94009972 5.97895313 0 6 C0 4.02 0 2.04 0 0 Z " fill="#A0C2D8" transform="translate(103,47)"/>
<path d="M0 0 C8.27944776 -0.71995198 15.90110295 2.50520558 22.45703125 7.50390625 C25.24670528 10.20883069 27.48203978 13.4185626 29 17 C28 19 27 21 26 23 C25.01 22.67 24.02 22.34 23 22 C22.67 19.36 22.34 16.72 22 14 C20.35 14 18.7 14 17 14 C17.33 13.34 17.66 12.68 18 12 C16.35 12.33 14.7 12.66 13 13 C13.66 11.02 14.32 9.04 15 7 C13.88625 6.896875 12.7725 6.79375 11.625 6.6875 C9.830625 6.3471875 9.830625 6.3471875 8 6 C6 3 6 3 5 1 C3.35 1 1.7 1 0 1 C0 0.67 0 0.34 0 0 Z " fill="#3F78A5" transform="translate(123,1)"/>
<path d="M0 0 C0.66 0.33 1.32 0.66 2 1 C2 1.99 2 2.98 2 4 C1.34 4 0.68 4 0 4 C0.12375 4.680625 0.2475 5.36125 0.375 6.0625 C-0.19019484 10.48985961 -2.68469107 13.11948568 -6 16 C-8.875 16.9375 -8.875 16.9375 -11 17 C-11 17.66 -11 18.32 -11 19 C-14.01213029 20.50606515 -17.11282622 20.12160331 -20.4140625 20.09765625 C-21.14370209 20.0962413 -21.87334167 20.09482635 -22.62509155 20.09336853 C-24.95843585 20.08776531 -27.29168464 20.07521235 -29.625 20.0625 C-31.20572778 20.05748541 -32.78645707 20.05292243 -34.3671875 20.04882812 C-38.24482854 20.03779484 -42.12239807 20.02052811 -46 20 C-46 19.67 -46 19.34 -46 19 C-36.1 19 -26.2 19 -16 19 C-15.67 17.35 -15.34 15.7 -15 14 C-12 12 -12 12 -9.375 11.0625 C-8.59125 10.711875 -7.8075 10.36125 -7 10 C-6.67 9.01 -6.34 8.02 -6 7 C-5.34 7 -4.68 7 -4 7 C-3.896875 6.401875 -3.79375 5.80375 -3.6875 5.1875 C-2.91123545 2.71756736 -1.92911079 1.67748765 0 0 Z " fill="#F8D342" transform="translate(198,134)"/>
<path d="M0 0 C0.33 0 0.66 0 1 0 C1 20.13 1 40.26 1 61 C1.66 61 2.32 61 3 61 C3.226875 61.78375 3.45375 62.5675 3.6875 63.375 C4.78125 66.21875 4.78125 66.21875 7.625 67.3125 C8.40875 67.539375 9.1925 67.76625 10 68 C10 69.32 10 70.64 10 72 C11.32 72 12.64 72 14 72 C14.33 72.66 14.66 73.32 15 74 C20.41093808 76.27828972 26.24178238 77.03688175 32 78 C32 78.99 32 79.98 32 81 C21.25423787 80.20401762 11.92662676 76.22148382 4.4296875 68.3515625 C0.70311004 63.9861432 -0.12499831 61.74916709 -0.11352539 56.08154297 C-0.11344986 54.84040741 -0.11337433 53.59927185 -0.11329651 52.32052612 C-0.1081895 50.96107951 -0.1029735 49.60163331 -0.09765625 48.2421875 C-0.09579142 46.85499116 -0.09436782 45.46779416 -0.09336853 44.08059692 C-0.08954848 40.42765488 -0.07972255 36.77475252 -0.06866455 33.12182617 C-0.05843944 29.39502499 -0.05386855 25.66821741 -0.04882812 21.94140625 C-0.03809983 14.62758606 -0.02102954 7.31379859 0 0 Z " fill="#F8E68A" transform="translate(54,127)"/>
<path d="M0 0 C-0.50789063 0.42410156 -1.01578125 0.84820312 -1.5390625 1.28515625 C-10.91832359 9.15520808 -10.91832359 9.15520808 -16 20 C-16.33 20 -16.66 20 -17 20 C-17.33 38.81 -17.66 57.62 -18 77 C-18.33 77 -18.66 77 -19 77 C-19.09300645 69.31526292 -19.16391952 61.63058479 -19.20724869 53.94541168 C-19.22805315 50.37616481 -19.25623769 46.80730526 -19.30175781 43.23828125 C-19.345474 39.78879534 -19.36919071 36.33968008 -19.37950897 32.88993835 C-19.39041005 30.94460818 -19.42159466 28.99942548 -19.45318604 27.05432129 C-19.45575022 16.86425282 -17.295005 10.46465628 -10 3 C-4.04771784 -1.34923928 -4.04771784 -1.34923928 0 0 Z " fill="#FBEDAA" transform="translate(72,109)"/>
<path d="M0 0 C0.66 0.33 1.32 0.66 2 1 C3.9959722 1.67863055 5.99568551 2.34641919 8 3 C7.67 3.99 7.34 4.98 7 6 C6.01 6.33 5.02 6.66 4 7 C3.67 9.64 3.34 12.28 3 15 C-0.3 14.67 -3.6 14.34 -7 14 C-6.01 12.68 -5.02 11.36 -4 10 C-4.22868094 6.31184707 -4.22868094 6.31184707 -5 3 C-2.625 1.4375 -2.625 1.4375 0 0 Z " fill="#558FBC" transform="translate(77,2)"/>
<path d="M0 0 C-0.33 0.66 -0.66 1.32 -1 2 C-4.87493616 2.05834395 -8.74975836 2.09371201 -12.625 2.125 C-13.71941406 2.14175781 -14.81382813 2.15851563 -15.94140625 2.17578125 C-25.98079979 2.23662606 -25.98079979 2.23662606 -31 0 C-31 -0.33 -31 -0.66 -31 -1 C-27.06782815 -1.19255579 -23.13529426 -1.37122901 -19.2019043 -1.53710938 C-17.20653467 -1.6241695 -15.21165305 -1.72218873 -13.21679688 -1.8203125 C-11.33637695 -1.89765625 -11.33637695 -1.89765625 -9.41796875 -1.9765625 C-8.26063232 -2.02893066 -7.1032959 -2.08129883 -5.91088867 -2.13525391 C-3 -2 -3 -2 0 0 Z " fill="#F7DD6D" transform="translate(117,208)"/>
<path d="M0 0 C1.48468126 2.72855165 2.35120432 5.09817411 2.8515625 8.16015625 C2.98079102 8.94890137 3.11001953 9.73764648 3.24316406 10.55029297 C3.36916992 11.37932129 3.49517578 12.20834961 3.625 13.0625 C3.75616211 13.91215332 3.88732422 14.76180664 4.02246094 15.63720703 C5.1902676 23.59497527 5.73201739 31.09417868 4 39 C3.67 39 3.34 39 3 39 C2.95101562 38.02160156 2.90203125 37.04320312 2.8515625 36.03515625 C2.47138679 27.68782923 2.47138679 27.68782923 0.9375 19.5 C-0.70572523 13.18271191 -0.15351579 6.47324894 0 0 Z " fill="#F9E89A" transform="translate(203,78)"/>
<path d="M0 0 C1.98 0 3.96 0 6 0 C7.54902932 6.91105388 7.54902932 6.91105388 6.05859375 9.8671875 C4.75 11.5 4.75 11.5 2 14 C1.01 14 0.02 14 -1 14 C-1 10.20789427 -0.54458838 6.74404511 0 3 C0 2.01 0 1.02 0 0 Z " fill="#396D97" transform="translate(144,80)"/>
<path d="M0 0 C1.32 0 2.64 0 4 0 C3.67 2.31 3.34 4.62 3 7 C1.68 7.33 0.36 7.66 -1 8 C-1.33 10.64 -1.66 13.28 -2 16 C-2.99 16.33 -3.98 16.66 -5 17 C-5.66 16.67 -6.32 16.34 -7 16 C-6.00716957 9.46510123 -4.44775912 4.97725425 0 0 Z " fill="#5E93BA" transform="translate(10,64)"/>
<path d="M0 0 C-1 3 -1 3 -3.0625 4.1875 C-3.701875 4.455625 -4.34125 4.72375 -5 5 C-4.67 5.66 -4.34 6.32 -4 7 C-4.66 7 -5.32 7 -6 7 C-5.67 7.99 -5.34 8.98 -5 10 C-6.65 9.67 -8.3 9.34 -10 9 C-10 8.01 -10 7.02 -10 6 C-12.9719385 7.12451727 -15.33440687 8.22293791 -18 10 C-15.36370221 3.26279455 -7.06646561 -1.11575773 0 0 Z " fill="#6FA2C4" transform="translate(29,54)"/>
<path d="M0 0 C2.75569447 2.18159145 4.43588747 3.87177494 6 7 C6.203125 8.875 6.203125 8.875 6.25 11 C6.27578125 11.70125 6.3015625 12.4025 6.328125 13.125 C6.21984375 13.74375 6.1115625 14.3625 6 15 C5.01 15.66 4.02 16.32 3 17 C3.13019531 16.40832031 3.26039063 15.81664062 3.39453125 15.20703125 C4.35631503 9.78380147 4.35631503 9.78380147 1.9375 4.9375 C-1.48619305 2.67931948 -2.98535447 2.23123809 -7 3 C-9.29215045 4.79191032 -9.29215045 4.79191032 -11 7 C-11.66 7.66 -12.32 8.32 -13 9 C-12.6875 5.625 -12.6875 5.625 -12 2 C-7.99745384 -0.66836411 -4.70686701 -0.8340238 0 0 Z " fill="#F9E795" transform="translate(135,173)"/>
<path d="M0 0 C0.33 0 0.66 0 1 0 C1.14728458 3.62456014 1.23472226 7.24833521 1.3125 10.875 C1.3753418 12.39480469 1.3753418 12.39480469 1.43945312 13.9453125 C1.57865309 22.63139055 -0.63735758 29.71082169 -6.6875 36.125 C-9 38 -9 38 -11 38 C-11 37.34 -11 36.68 -11 36 C-10.071875 35.360625 -9.14375 34.72125 -8.1875 34.0625 C-3.6779643 30.5444225 -3.07112832 25.36503748 -2 20 C-1.67 20 -1.34 20 -1 20 C-0.67 13.4 -0.34 6.8 0 0 Z " fill="#FBEC95" transform="translate(153,162)"/>
<path d="M0 0 C0.66 1.32 1.32 2.64 2 4 C17.84 4 33.68 4 50 4 C50 4.66 50 5.32 50 6 C33.17 6 16.34 6 -1 6 C-0.67 4.02 -0.34 2.04 0 0 Z " fill="#F7E79E" transform="translate(103,156)"/>
<path d="M0 0 C3 1 3 1 4 3 C6.9254644 3.2236068 6.9254644 3.2236068 9 2 C9.12375 2.94875 9.2475 3.8975 9.375 4.875 C9.71687177 8.08667191 9.71687177 8.08667191 12 10 C11.01 10 10.02 10 9 10 C9.33 10.99 9.66 11.98 10 13 C9.01 13 8.02 13 7 13 C3.75384564 9.55096099 0 4.92819189 0 0 Z " fill="#5789AE" transform="translate(5,135)"/>
<path d="M0 0 C0.84573528 3.11204154 1 5.77749268 1 9 C1.33 9.99 1.66 10.98 2 12 C2.99 12.33 3.98 12.66 5 13 C4.75 15.375 4.75 15.375 4 18 C2.0625 19.25 2.0625 19.25 0 20 C-0.66 20.33 -1.32 20.66 -2 21 C-2.24091535 13.7725395 -1.34495828 7.09705662 0 0 Z " fill="#6B9CC4" transform="translate(2,81)"/>
<path d="M0 0 C0.33 0 0.66 0 1 0 C1.33 6.6 1.66 13.2 2 20 C3.32 20.66 4.64 21.32 6 22 C6 22.66 6 23.32 6 24 C7.32 24.33 8.64 24.66 10 25 C9.0925 25.12375 8.185 25.2475 7.25 25.375 C3.76141428 25.8940792 3.76141428 25.8940792 0 28 C0 18.76 0 9.52 0 0 Z " fill="#5085AF" transform="translate(54,20)"/>
<path d="M0 0 C6.33108231 -0.5505289 11.37883909 1.06166589 17 4 C18.796875 5.63671875 18.796875 5.63671875 20 7 C18.68 7.33 17.36 7.66 16 8 C16 7.34 16 6.68 16 6 C13.98177083 6.09765625 11.96354167 6.1953125 9.9453125 6.29296875 C9.30335938 6.19628906 8.66140625 6.09960938 8 6 C6 3 6 3 5 1 C3.35 1 1.7 1 0 1 C0 0.67 0 0.34 0 0 Z " fill="#78A2BE" transform="translate(123,1)"/>
<path d="M0 0 C0 0.99 0 1.98 0 3 C0.3062434 4.33981486 0.63451555 5.67511887 1 7 C-0.98 7.99 -0.98 7.99 -3 9 C-3 17.91 -3 26.82 -3 36 C-3.33 36 -3.66 36 -4 36 C-4.07455949 31.97990543 -4.12879358 27.96008267 -4.16479492 23.93945312 C-4.17981428 22.57382184 -4.20023608 21.20823824 -4.22631836 19.84277344 C-4.26300137 17.87196095 -4.27818551 15.90078592 -4.29296875 13.9296875 C-4.3086792 12.74616699 -4.32438965 11.56264648 -4.34057617 10.34326172 C-3.94279595 6.43845712 -2.85249407 2.85249407 0 0 Z " fill="#A9C8DB" transform="translate(57,11)"/>
<path d="M0 0 C2 3 2 3 3.0625 5.1875 C5.86000632 7.80452204 8.23679654 7.35386021 11.94140625 7.23828125 C14.06128029 7.11161178 14.06128029 7.11161178 16 6 C15.34 7.32 14.68 8.64 14 10 C4.58997722 10.3690205 4.58997722 10.3690205 0 8 C0 7.01 0 6.02 0 5 C-0.66 5 -1.32 5 -2 5 C-1.34 3.35 -0.68 1.7 0 0 Z " fill="#F6E079" transform="translate(122,184)"/>
<path d="M0 0 C0.66 0 1.32 0 2 0 C2 1.32 2 2.64 2 4 C2.66 4 3.32 4 4 4 C4.33 5.98 4.66 7.96 5 10 C3.68 10.99 2.36 11.98 1 13 C-1.30143236 9.54785147 -1.13833854 8.76520676 -0.625 4.8125 C-0.51414063 3.91144531 -0.40328125 3.01039062 -0.2890625 2.08203125 C-0.19367187 1.39496094 -0.09828125 0.70789063 0 0 Z " fill="#4B87B3" transform="translate(3,80)"/>
<path d="M0 0 C0.99 0.33 1.98 0.66 3 1 C2.979375 2.11375 2.95875 3.2275 2.9375 4.375 C2.73619282 7.83215921 2.73619282 7.83215921 4 10 C3.0625 12.625 3.0625 12.625 2 15 C-0.77458464 10.83812305 -1.41714582 6.3836904 -0.5625 1.5 C-0.376875 1.005 -0.19125 0.51 0 0 Z " fill="#5B8DB4" transform="translate(3,119)"/>
<path d="M0 0 C0.66 0.33 1.32 0.66 2 1 C3.66392045 1.67349161 5.33032028 2.3409159 7 3 C6 5 6 5 3.75 6.1875 C0.69751418 7.08937081 -0.97734454 6.86361585 -4 6 C-4.33 5.01 -4.66 4.02 -5 3 C-2.625 1.4375 -2.625 1.4375 0 0 Z " fill="#4A8ABD" transform="translate(77,2)"/>
<path d="M0 0 C2.64 0 5.28 0 8 0 C7.67 0.99 7.34 1.98 7 3 C7.99 3.33 8.98 3.66 10 4 C10 4.99 10 5.98 10 7 C9.34 7 8.68 7 8 7 C8 6.34 8 5.68 8 5 C5.69 5 3.38 5 1 5 C0.67 3.35 0.34 1.7 0 0 Z " fill="#FCD642" transform="translate(78,200)"/>
<path d="M0 0 C2.9719385 1.12451727 5.33440687 2.22293791 8 4 C10.32387947 4.39387788 12.65793749 4.73486085 15 5 C11.59451845 7.27032103 10.03255189 7.15124622 6.07421875 6.55859375 C2.82129219 5.68257021 0.64959262 4.05343428 -2 2 C-1.34 1.34 -0.68 0.68 0 0 Z " fill="#5987A8" transform="translate(16,148)"/>
<path d="M0 0 C0.66 0.66 1.32 1.32 2 2 C-4.6 2 -11.2 2 -18 2 C-12.71323282 -1.52451146 -6.08599391 -1.63282763 0 0 Z " fill="#3E6C90" transform="translate(46,153)"/>
<path d="M0 0 C0.66 2.31 1.32 4.62 2 7 C1.34 7 0.68 7 0 7 C-0.0825 8.27875 -0.165 9.5575 -0.25 10.875 C-0.51171875 13.0859375 -0.51171875 13.0859375 -1 15 C-3.0625 16.5 -3.0625 16.5 -5 17 C-4.484375 16.154375 -3.96875 15.30875 -3.4375 14.4375 C-1.73087803 10.35644746 -1.95773615 8.24922953 -3 4 C-3.66 3.01 -4.32 2.02 -5 1 C-2 0 -2 0 0 0 Z " fill="#84ADCC" transform="translate(85,16)"/>
<path d="M0 0 C0.66 0 1.32 0 2 0 C2 0.66 2 1.32 2 2 C2.66 2.33 3.32 2.66 4 3 C2.42466914 3.86883706 0.83935491 4.71959068 -0.75 5.5625 C-1.63171875 6.03816406 -2.5134375 6.51382813 -3.421875 7.00390625 C-6.20701188 8.07998186 -7.26980214 8.06528748 -10 7 C-9.34 7 -8.68 7 -8 7 C-8 6.34 -8 5.68 -8 5 C-4.91190305 3.23537317 -3.76687864 3 0 3 C0 2.01 0 1.02 0 0 Z " fill="#F6E078" transform="translate(138,198)"/>
<path d="M0 0 C-0.309375 0.5775 -0.61875 1.155 -0.9375 1.75 C-1.92929191 3.85026522 -2.47488739 5.74951737 -3 8 C-3.33 8.66 -3.66 9.32 -4 10 C-4.99 9.67 -5.98 9.34 -7 9 C-6.67 7.68 -6.34 6.36 -6 5 C-6.66 4.67 -7.32 4.34 -8 4 C-4.5 0 -4.5 0 0 0 Z " fill="#4A89B8" transform="translate(19,60)"/>
<path d="M0 0 C-1.23874421 1.178611 -2.4914801 2.34252915 -3.75 3.5 C-4.79414062 4.47453125 -4.79414062 4.47453125 -5.859375 5.46875 C-8 7 -8 7 -12 7 C-10.95724749 3.7558811 -9.38759509 2.39805336 -6.5625 0.6875 C-3 -1 -3 -1 0 0 Z " fill="#FBEEA4" transform="translate(72,109)"/>
<path d="M0 0 C0 3.60907717 -1.17461788 4.9207525 -3.5078125 7.5703125 C-6.58395738 10.51761361 -9.65306496 11.91215641 -13.875 12.1875 C-14.57625 12.125625 -15.2775 12.06375 -16 12 C-12.25 10 -12.25 10 -10 10 C-10 9.34 -10 8.68 -10 8 C-8.9171875 7.690625 -8.9171875 7.690625 -7.8125 7.375 C-4.0744694 5.54751837 -2.50753083 3.29561194 0 0 Z " fill="#F9E89A" transform="translate(197,143)"/>
<path d="M0 0 C0 3 0 3 -1.5 4.6875 C-1.995 5.120625 -2.49 5.55375 -3 6 C-2.34 7.32 -1.68 8.64 -1 10 C-1.99 10.99 -2.98 11.98 -4 13 C-4 11.68 -4 10.36 -4 9 C-4.66 9 -5.32 9 -6 9 C-6.125 4.25 -6.125 4.25 -5 2 C-3.35636866 1.27840576 -1.68949614 0.60648579 0 0 Z " fill="#487EAC" transform="translate(55,104)"/>
<path d="M0 0 C3 3.75 3 3.75 3 6 C5.31 6.66 7.62 7.32 10 8 C8.3125 9.625 8.3125 9.625 6 11 C3.25 10.1875 3.25 10.1875 1 9 C0.67 6.03 0.34 3.06 0 0 Z " fill="#85AECC" transform="translate(66,26)"/>
<path d="M0 0 C1.3357457 3.77371512 0.72408671 6.85831347 0.0625 10.75 C-0.13214844 11.92046875 -0.32679687 13.0909375 -0.52734375 14.296875 C-0.68332031 15.18890625 -0.83929688 16.0809375 -1 17 C-1.33 17 -1.66 17 -2 17 C-2.33 12.05 -2.66 7.1 -3 2 C-2.01 1.34 -1.02 0.68 0 0 Z " fill="#F5D346" transform="translate(123,171)"/>
<path d="M0 0 C0 0.33 0 0.66 0 1 C-0.9075 1.28875 -1.815 1.5775 -2.75 1.875 C-5.85286999 2.82430105 -5.85286999 2.82430105 -7.875 4.125 C-11.22979735 5.50638714 -14.39467147 5.12017762 -18 5 C-12.54059724 1.36039816 -6.59612984 -0.5073946 0 0 Z " fill="#9BBCD5" transform="translate(82,1)"/>
<path d="M0 0 C1.67542976 0.28604898 3.34385343 0.61781233 5 1 C5 1.99 5 2.98 5 4 C2.29120665 5.35439668 -0.00933268 5.06501451 -3 5 C-1.125 1.125 -1.125 1.125 0 0 Z " fill="#FAD63A" transform="translate(131,168)"/>
<path d="M0 0 C1.98 0 3.96 0 6 0 C6 0.66 6 1.32 6 2 C6.99 2.66 7.98 3.32 9 4 C5.7 4.66 2.4 5.32 -1 6 C-0.34 4.68 0.32 3.36 1 2 C0.67 1.34 0.34 0.68 0 0 Z " fill="#5E8AB5" transform="translate(67,98)"/>
<path d="M0 0 C3.63 0.66 7.26 1.32 11 2 C11 2.99 11 3.98 11 5 C5.04296875 4.609375 5.04296875 4.609375 3 4 C2.01 2.68 1.02 1.36 0 0 Z " fill="#F6DF7A" transform="translate(75,203)"/>
<path d="M0 0 C-0.33 0.99 -0.66 1.98 -1 3 C-4.3 3.33 -7.6 3.66 -11 4 C-10.34 3.67 -9.68 3.34 -9 3 C-9 2.34 -9 1.68 -9 1 C-5.92677456 0.08941469 -3.19902639 -0.08886184 0 0 Z " fill="#2C6894" transform="translate(141,95)"/>
<path d="M0 0 C0.99 0 1.98 0 3 0 C3.33 1.98 3.66 3.96 4 6 C3.01 6.33 2.02 6.66 1 7 C0.34 6.67 -0.32 6.34 -1 6 C-0.67 4.02 -0.34 2.04 0 0 Z " fill="#679BC2" transform="translate(4,74)"/>
<path d="M0 0 C-2.86299506 2.86299506 -4.65852284 2.99421225 -8.6875 3.0625 C-9.780625 3.041875 -10.87375 3.02125 -12 3 C-11.67 2.34 -11.34 1.68 -11 1 C-7.318488 -0.05186057 -3.80944893 -0.08859184 0 0 Z " fill="#5A7C9B" transform="translate(140,98)"/>
<path d="M0 0 C-0.33 0.99 -0.66 1.98 -1 3 C-3.64 3.33 -6.28 3.66 -9 4 C-9.33 3.34 -9.66 2.68 -10 2 C-3.375 0 -3.375 0 0 0 Z " fill="#5085AB" transform="translate(81,33)"/>
<path d="M0 0 C1.98 0.99 1.98 0.99 4 2 C3.67 2.66 3.34 3.32 3 4 C4.65 4 6.3 4 8 4 C5.64561267 5.42944945 4.51967567 6.08661261 1.75 5.625 C1.1725 5.41875 0.595 5.2125 0 5 C0 3.35 0 1.7 0 0 Z " fill="#F5D248" transform="translate(120,201)"/>
<path d="M0 0 C2.63249349 2.45699392 4.78137264 4.56568654 6 8 C5.67 8.99 5.34 9.98 5 11 C4.67 10.01 4.34 9.02 4 8 C3.34 8 2.68 8 2 8 C1.34 5.36 0.68 2.72 0 0 Z " fill="#F8F0A1" transform="translate(195,61)"/>
<path d="M0 0 C0 0.99 0 1.98 0 3 C0.3062434 4.33981486 0.63451555 5.67511887 1 7 C-0.98 7.99 -0.98 7.99 -3 9 C-2.25 2.25 -2.25 2.25 0 0 Z " fill="#87B3CF" transform="translate(57,11)"/>
<path d="M0 0 C3.36720387 1.39332574 4.9859524 2.9789286 7 6 C6.67 6.66 6.34 7.32 6 8 C5.34 7.67 4.68 7.34 4 7 C4 6.34 4 5.68 4 5 C2.68 4.34 1.36 3.68 0 3 C0 2.01 0 1.02 0 0 Z " fill="#83A3B9" transform="translate(143,8)"/>
<path d="M0 0 C1.5625 1.25 1.5625 1.25 3 3 C2.6875 5.1875 2.6875 5.1875 2 7 C1.01 7 0.02 7 -1 7 C-1 3 -1 3 0 0 Z " fill="#31658E" transform="translate(144,87)"/>
<path d="M0 0 C0.66 0 1.32 0 2 0 C1.67 2.64 1.34 5.28 1 8 C0.34 7.34 -0.32 6.68 -1 6 C-0.625 2.875 -0.625 2.875 0 0 Z " fill="#5A83A1" transform="translate(151,78)"/>
<path d="M0 0 C1.32 0 2.64 0 4 0 C3.34 1.65 2.68 3.3 2 5 C0.68 4.67 -0.64 4.34 -2 4 C-1.34 2.68 -0.68 1.36 0 0 Z " fill="#629AC4" transform="translate(10,64)"/>
</svg>
