<?xml version="1.0" encoding="UTF-8"?>
<svg version="1.1" xmlns="http://www.w3.org/2000/svg" width="477" height="523">
<path d="M0 0 C2.2528958 0.02989137 4.50483256 0.13499314 6.75390625 0.26953125 C7.44701401 0.31059494 8.14012177 0.35165863 8.85423279 0.39396667 C10.33486526 0.48311077 11.81533807 0.57493951 13.2956543 0.66918945 C15.5007555 0.8085965 17.70627527 0.93724612 19.91210938 1.06445312 C27.1758951 1.50007794 34.421342 2.06556507 41.65234375 2.88671875 C43.52200806 3.09687622 43.52200806 3.09687622 45.42944336 3.3112793 C49.43221974 4.08337039 52.3740516 5.14689905 56 7 C56.99 8.485 56.99 8.485 58 10 C60.55183404 11.20450304 60.55183404 11.20450304 63 12 C63.144375 11.195625 63.28875 10.39125 63.4375 9.5625 C64 7 64 7 65 6 C81.55871309 4.97035525 93.20453093 7.33230907 107 17 C106.97679687 16.08476563 106.95359375 15.16953125 106.9296875 14.2265625 C106.91164063 13.03804687 106.89359375 11.84953125 106.875 10.625 C106.85179687 9.44164062 106.82859375 8.25828125 106.8046875 7.0390625 C107 4 107 4 109 2 C114.87017013 2.11510138 118.94246515 3.86536235 123 8 C124.92129958 10.88920869 126.51796924 13.86519761 128 17 C128.33 16.01 128.66 15.02 129 14 C132.06274557 13.70882348 133.6232936 13.76907382 136.28125 15.3984375 C141.83397044 20.34505113 145.19151721 25.11286632 148 32 C149.485 31.01 149.485 31.01 151 30 C156.13453033 32.48946925 159.62228979 36.49638639 163 41 C164.09506492 44.28519475 164.09960608 46.73663415 164.0625 50.1875 C164.05347656 51.27417969 164.04445313 52.36085937 164.03515625 53.48046875 C164.01775391 54.72763672 164.01775391 54.72763672 164 56 C165.32 53.69 166.64 51.38 168 49 C170.78111435 49.35608087 171.88100786 49.88026877 173.88671875 51.8984375 C178.51630236 58.26537027 180.09148689 63.14519679 180 71 C180 71.99 180 72.98 180 74 C180.4125 73.484375 180.825 72.96875 181.25 72.4375 C183 71 183 71 184.9375 71.1796875 C188.35951003 72.54071422 189.37140157 74.95717896 191.015625 78.12890625 C193.30123375 84.7952651 193.26262878 92.84032039 190.5 99.375 C190.005 100.24125 189.51 101.1075 189 102 C191.64 99.69 194.28 97.38 197 95 C201 97 201 97 202.21875 99.734375 C204.10770332 107.63019986 204.27147333 114.73031663 200 121.8125 C199.02789545 123.22790222 198.03764246 124.63191783 197 126 C197.86625 125.34 198.7325 124.68 199.625 124 C203.21423463 121.87304615 204.92694798 121.61209028 209 122 C211.81421285 126.82918926 211.60335963 131.55504727 211 137 C209.46219321 142.23171382 207.27390692 146.48929074 203 150 C203.86625 149.649375 204.7325 149.29875 205.625 148.9375 C209.28004806 147.92220887 211.33966623 148.26690794 215 149 C215.61501152 157.71949666 215.31234286 164.75843789 210 172 C207.828125 173.7734375 207.828125 173.7734375 206 175 C208.64 175.33 211.28 175.66 214 176 C214.51135238 182.93166561 214.17932716 188.2672946 210 194 C205.67511791 198.82853925 201.12039509 201.06724366 195 203 C195.33 203.33 195.66 203.66 196 204 C196.70125 203.855625 197.4025 203.71125 198.125 203.5625 C202.81326834 202.64523011 207.41829882 202.53385562 212 204 C213.51960339 208.68370906 212.1279232 211.72765806 210 216 C206.29243756 221.35536797 202.03277048 225.23460975 195.55078125 226.46484375 C193.36435209 226.71540785 191.19803411 226.90031591 189 227 C189 227.66 189 228.32 189 229 C189.74765625 228.97679687 190.4953125 228.95359375 191.265625 228.9296875 C192.25046875 228.91164063 193.2353125 228.89359375 194.25 228.875 C195.22453125 228.85179687 196.1990625 228.82859375 197.203125 228.8046875 C200.06627213 229.00462794 201.65155238 229.37332298 204 231 C205.12018942 234.36056826 205.0193672 234.72745395 203.5625 237.75 C200.426931 243.54120396 196.26822362 247.78571929 190.03515625 250.1015625 C187.36658742 250.83653513 184.71709601 251.47556051 182 252 C183.03060547 252.29003906 183.03060547 252.29003906 184.08203125 252.5859375 C184.98308594 252.84632813 185.88414062 253.10671875 186.8125 253.375 C187.70582031 253.63023437 188.59914063 253.88546875 189.51953125 254.1484375 C192 255 192 255 195 257 C195.44921875 259.3671875 195.44921875 259.3671875 195 262 C193.20703125 264.1328125 193.20703125 264.1328125 190.8125 266.125 C190.03519531 266.78757812 189.25789063 267.45015625 188.45703125 268.1328125 C184.27566932 271.31038167 181.11636911 273.3327516 175.8125 273.75 C174.95269531 273.82734375 174.09289062 273.9046875 173.20703125 273.984375 C171 274 171 274 169 273 C170.40024183 275.80048365 172.42908914 276.02054503 175.2109375 277.13671875 C177.64603963 278.31173528 179.24886323 279.96868134 181 282 C179.67594169 287.6272478 175.65159306 290.08945689 171 293 C165.55715295 295.66094745 159.92765847 295.18985383 154 295 C153.67 295.66 153.34 296.32 153 297 C154.0828125 297.309375 154.0828125 297.309375 155.1875 297.625 C158.9255306 299.45248163 160.49246917 301.70438806 163 305 C159.45598521 309.9837708 156.19927162 312.91093877 150 314 C144.9842134 314.22891521 140.01613669 314.17634856 135 314 C135.78632813 314.78246094 136.57265625 315.56492187 137.3828125 316.37109375 C141.62546211 320.6327403 141.62546211 320.6327403 143 323 C142.80859375 324.984375 142.80859375 324.984375 142 327 C140.29296875 328.23046875 140.29296875 328.23046875 138.1875 329.1875 C137.50042969 329.51105469 136.81335938 329.83460938 136.10546875 330.16796875 C132.10304981 331.74962967 128.74612003 332.11525861 124.4375 332.0625 C123.48746094 332.05347656 122.53742188 332.04445313 121.55859375 332.03515625 C120.71425781 332.02355469 119.86992187 332.01195312 119 332 C118.01 332 117.02 332 116 332 C116.515625 332.556875 117.03125 333.11375 117.5625 333.6875 C119 336 119 336 119.1875 338.5625 C118 341 118 341 114.8125 342.8125 C108.07756638 344.95598701 99.56114163 345.3427999 92.93359375 342.84375 C89.15169058 341.75601221 87.69321546 342.51207775 84.1875 344.1875 C76.24839865 347.90527081 68.26803781 350.38594659 59.6875 352.125 C58.39162964 352.39570312 58.39162964 352.39570312 57.06958008 352.671875 C51.83666802 353.68839792 46.94588033 354.09164281 41.62426758 354.0234375 C28.56618464 353.89784127 19.20136229 359.2891619 8.24804688 366.02783203 C5.65215762 367.15042445 4.59505653 366.9980415 2 366 C3.36802279 361.5228345 5.34755544 359.80957274 9 357 C9.33 356.01 9.66 355.02 10 354 C5.70546186 355.45707544 1.95794811 356.9082553 -1.8125 359.4375 C-10.17038199 364.82441612 -18.12260695 366.68778752 -28 366 C-28 365.01 -28 364.02 -28 363 C-26.91332031 362.43732422 -26.91332031 362.43732422 -25.8046875 361.86328125 C-20.36631982 358.98457196 -15.53517329 356.16745654 -11 352 C-15.57508308 351.65686877 -18.75039814 352.4673592 -22.875 354.24609375 C-35.86111472 358.85329989 -49.77488758 356.28887842 -62 351 C-65.04159127 349.51910862 -67.30825337 348.09956237 -70 346 C-70.6953125 343.84765625 -70.6953125 343.84765625 -71 342 C-69.96101563 342.08378906 -68.92203125 342.16757812 -67.8515625 342.25390625 C-60.11088161 342.8342716 -52.71450727 343.20539176 -45 342 C-47.43140791 340.78429605 -48.84241444 340.94261985 -51.55078125 341.04296875 C-70.57666469 341.54610507 -83.64316865 338.27726091 -98.50390625 325.80859375 C-100.33908509 323.59008773 -100.64768726 321.82332815 -101 319 C-94.58163265 319.75510204 -94.58163265 319.75510204 -91.625 321 C-88.73668144 322.10031183 -86.26317501 322.40266205 -83.1875 322.625 C-82.21167969 322.69976562 -81.23585938 322.77453125 -80.23046875 322.8515625 C-79.49441406 322.90054687 -78.75835937 322.94953125 -78 323 C-79.051875 322.25556641 -79.051875 322.25556641 -80.125 321.49609375 C-85.41279996 317.70985655 -90.47845941 313.87313705 -95.24609375 309.4453125 C-98.43002084 306.82158639 -100.1558475 305.96393344 -104.3828125 306.14453125 C-110.9795255 305.88094769 -115.51438687 300.49315704 -120 296 C-123.18505997 292.46554554 -126.09270107 288.76363062 -129 285 C-130.51777041 283.18493436 -132.03861671 281.37243646 -133.5625 279.5625 C-145.42754166 264.99898532 -154.20142259 248.83342897 -160 231 C-160.29825684 230.08959961 -160.59651367 229.17919922 -160.90380859 228.24121094 C-165.83805472 212.85365425 -168.43937614 198.13944128 -169 182 C-169.03174316 181.23284668 -169.06348633 180.46569336 -169.09619141 179.67529297 C-169.27794691 174.77012452 -169.21683507 169.90299888 -169 165 C-168.96422852 164.14116211 -168.92845703 163.28232422 -168.89160156 162.39746094 C-167.90071168 141.80575663 -163.06060959 122.87556966 -154.375 104.1875 C-152.81528533 100.8246757 -151.35116992 97.45230112 -150 94 C-149.34 94 -148.68 94 -148 94 C-147.76152344 92.99195312 -147.52304688 91.98390625 -147.27734375 90.9453125 C-146.06778118 86.73878136 -144.03001124 83.45760901 -141.5625 79.875 C-140.90967041 78.91037842 -140.90967041 78.91037842 -140.24365234 77.92626953 C-136.32587032 72.24959711 -131.98801744 66.9878893 -127.4453125 61.8046875 C-125.88726847 60.01766575 -124.36771085 58.19580356 -122.90234375 56.33203125 C-121.18760918 54.22998497 -119.50745974 52.55162385 -117.4375 50.8125 C-115.08771054 48.81690675 -112.79605856 46.80586344 -110.5625 44.6796875 C-94.28882469 29.22938267 -73.97396214 18.63615127 -53 11 C-52.1853125 10.69578125 -51.370625 10.3915625 -50.53125 10.078125 C-39.12354733 6.02756391 -27.21442717 4.33343747 -15.25 2.875 C-12.56700348 2.54421094 -9.88500104 2.20710592 -7.203125 1.8671875 C-5.44983887 1.65231689 -5.44983887 1.65231689 -3.66113281 1.43310547 C-1.0851027 1.27988106 -1.0851027 1.27988106 0 0 Z M-27 8 C-27.72558105 8.16129395 -28.45116211 8.32258789 -29.19873047 8.48876953 C-40.83827964 11.11417883 -52.00214509 14.36530656 -63 19 C-63.67063477 19.27650391 -64.34126953 19.55300781 -65.03222656 19.83789062 C-83.85914969 27.70983677 -103.35117207 40.22140649 -116.5 56 C-119 59 -119 59 -121.37109375 61.3671875 C-152.26425081 92.30624821 -164.7337044 135.20130363 -165 178 C-164.96220376 183.36588498 -164.56640122 188.66418289 -164 194 C-163.93893066 194.67933594 -163.87786133 195.35867187 -163.81494141 196.05859375 C-161.53082454 220.17178873 -152.26742041 249.31928706 -135.01171875 266.90625 C-133.11549628 268.87979417 -131.59315096 270.86268891 -130.0625 273.125 C-129.381875 274.07375 -128.70125 275.0225 -128 276 C-127.34 276 -126.68 276 -126 276 C-125.7525 276.5775 -125.505 277.155 -125.25 277.75 C-123.81700012 280.32939979 -122.21575324 282.06121592 -120 284 C-119.34 284 -118.68 284 -118 284 C-119.44131446 281.00807709 -121.06864399 278.20013876 -122.8125 275.375 C-125.82699775 270.36539988 -128.51648304 265.29191258 -131 260 C-131.81984375 258.25783203 -131.81984375 258.25783203 -132.65625 256.48046875 C-152.42453951 213.43767126 -152.9785236 165.50230616 -137.6640625 121.046875 C-131.39557994 104.3067655 -122.19794057 88.98332939 -110.74609375 75.30859375 C-108.79892203 73.21657106 -108.79892203 73.21657106 -109 71 C-108.01 70.67 -107.02 70.34 -106 70 C-104.42159428 68.44294806 -104.42159428 68.44294806 -102.875 66.5 C-82.22498837 42.32961217 -52.90191581 24.50420123 -22 17 C-21.05769531 16.73832031 -20.11539063 16.47664063 -19.14453125 16.20703125 C-9.90498296 13.69642295 -0.45817033 12.39498119 9 11 C5.50309908 7.42228834 3.45548896 6.10484454 -1.6875 5.734375 C-3.12498207 5.72550475 -4.56261002 5.73146836 -6 5.75 C-6.76401123 5.75749268 -7.52802246 5.76498535 -8.31518555 5.77270508 C-14.71080666 5.89309799 -20.75192168 6.58961507 -27 8 Z M63 12 C63.33 12.66 63.66 13.32 64 14 C64.66 13.67 65.32 13.34 66 13 C65.01 12.67 64.02 12.34 63 12 Z M-28.96484375 36.90234375 C-30.11157426 38.12937048 -31.25747881 39.35716993 -32.40234375 40.5859375 C-35.29026 43.14199051 -38.33881482 43 -42 43 C-42.50048074 39.87199541 -42.65231579 37.11378866 -42 34 C-37.97579874 29.18982193 -31.58283519 26.59203062 -26 24 C-33.05628277 21.64790574 -43.26317863 28.46820603 -49.8125 31.6875 C-58.2060267 35.90361266 -66.188397 40.79156601 -74 46 C-74.66628418 46.4429541 -75.33256836 46.8859082 -76.01904297 47.34228516 C-77.71821702 48.50676304 -79.36453654 49.74761807 -81 51 C-81 51.66 -81 52.32 -81 53 C-81.74781738 53.25958496 -82.49563477 53.51916992 -83.26611328 53.78662109 C-86.07654802 55.03397425 -87.60157316 56.24008196 -89.7421875 58.4140625 C-90.75345703 59.43306641 -90.75345703 59.43306641 -91.78515625 60.47265625 C-92.47480469 61.18292969 -93.16445312 61.89320312 -93.875 62.625 C-94.55691406 63.31207031 -95.23882812 63.99914062 -95.94140625 64.70703125 C-102.62862721 71.49615272 -108.87404435 78.36408378 -114.0625 86.375 C-114.48877686 87.0256543 -114.91505371 87.67630859 -115.35424805 88.34667969 C-116.57873734 90.22536093 -117.79194536 92.11071938 -119 94 C-119.59296875 94.92554688 -120.1859375 95.85109375 -120.796875 96.8046875 C-128.90653977 109.88883737 -135.11793315 125.1031531 -139 140 C-139.25523437 140.93457031 -139.51046875 141.86914062 -139.7734375 142.83203125 C-150.30123555 184.26569188 -143.72671393 229.2708418 -122.25 265.9921875 C-120.55351268 268.70185474 -118.79700553 271.35599823 -117 274 C-116.30003906 275.04800781 -115.60007812 276.09601563 -114.87890625 277.17578125 C-105.74501273 290.72369029 -95.60820142 302.89093392 -82.6328125 312.91015625 C-80.83103408 314.34035129 -79.07656058 315.83164352 -77.3671875 317.37109375 C-69.36079018 324.51886629 -60.75751939 329.29079443 -51.13427734 333.94726562 C-49.38095402 334.81209406 -47.66301477 335.74829982 -45.95703125 336.703125 C-36.58896323 341.51861639 -25.87852564 340.81888895 -15.58032227 340.87402344 C-12.96362582 341.00177586 -10.55177895 341.42176154 -8 342 C-8 343.98 -8 345.96 -8 348 C-5.03946904 349.32319264 -5.03946904 349.32319264 -2.25 348.0625 C1.33517401 346.89042388 4.25292435 346.85011697 8 347 C8.66 348.32 9.32 349.64 10 351 C16.26763879 351.53341607 20.44784083 349.8156571 26 347 C28.57902302 345.71048849 30.7681974 345.64994918 33.64453125 345.38671875 C51.14522903 343.70302414 51.14522903 343.70302414 68 339 C70.65569243 338.26866316 73.31834265 337.6309782 76 337 C74.35 338.65 72.7 340.3 71 342 C71.33 342.66 71.66 343.32 72 344 C76.62 342.35 81.24 340.7 86 339 C84.47426795 335.18566987 83.47253678 333.03447696 81 330 C76.72318775 331.30909855 72.98657107 332.99022284 69.0625 335.125 C64.33996461 337.5480194 61.2534903 338.71638504 56 338 C56.33 336.02 56.66 334.04 57 332 C57.98742187 331.67386719 58.97484375 331.34773438 59.9921875 331.01171875 C61.28664273 330.57085356 62.58090362 330.12941745 63.875 329.6875 C64.52597656 329.47416016 65.17695313 329.26082031 65.84765625 329.04101562 C69.46488484 327.79176658 70.81421256 327.27868116 73 324 C72.67452429 322.02097011 72.67452429 322.02097011 72 320 C71.13539899 307.42623105 71.65813754 298.48640946 79.8125 288.375 C80.534375 287.59125 81.25625 286.8075 82 286 C83.8125 286.0625 83.8125 286.0625 86 287 C88.02800831 290.90579378 89.34108329 294.65114973 90 299 C90.66 299 91.32 299 92 299 C92.20625 297.72125 92.4125 296.4425 92.625 295.125 C93.87266458 289.55032846 96.2074005 284.31483103 100 280 C102.69921875 279.21875 102.69921875 279.21875 105 279 C106.32 281.97 107.64 284.94 109 288 C109.33 288 109.66 288 110 288 C110.15855469 287.2265625 110.31710937 286.453125 110.48046875 285.65625 C112.01773371 278.79376331 113.92087109 273.73282982 118 268 C119.828125 268.18359375 119.828125 268.18359375 122 269 C123.484375 271.28515625 123.484375 271.28515625 124.75 274.0625 C125.17796875 274.98160156 125.6059375 275.90070313 126.046875 276.84765625 C126.36140625 277.55792969 126.6759375 278.26820313 127 279 C127.33 279 127.66 279 128 279 C127.96519531 278.32195312 127.93039062 277.64390625 127.89453125 276.9453125 C127.64702652 268.43586411 128.49028859 260.77524737 134 254 C135.875 254.25 135.875 254.25 138 255 C139.25 257.0625 139.25 257.0625 140 259 C140.66 259 141.32 259 142 259 C141.79375 257.72125 141.5875 256.4425 141.375 255.125 C140.65269599 248.69547701 141.37751562 242.43372657 145 237 C150.63689034 238.32632714 152.93185683 242.46631765 156 247 C156.33 246.34 156.66 245.68 157 245 C156.26231157 243.15112644 156.26231157 243.15112644 155.125 241.1875 C152.18869111 235.54776189 151.45203484 230.32071443 152 224 C153 221 153 221 154 219 C162.03055721 221.83431431 165.92045564 225.80167354 170 233 C170.66 233.99 171.32 234.98 172 236 C172.94607807 233.25038489 172.94607807 233.25038489 173 230 C170.87685203 227.54088679 170.87685203 227.54088679 168 225 C166.87483918 223.53111463 165.79320428 222.0281806 164.75 220.5 C164.24984375 219.7678125 163.7496875 219.035625 163.234375 218.28125 C160.93485675 214.0315074 160.88020512 209.94297504 160.9375 205.1875 C160.94652344 204.21167969 160.95554687 203.23585937 160.96484375 202.23046875 C160.98224609 201.12638672 160.98224609 201.12638672 161 200 C164.93670488 198.68776504 167.12488144 199.75703744 171 201 C170.65066406 200.39671875 170.30132812 199.7934375 169.94140625 199.171875 C169.48636719 198.37265625 169.03132813 197.5734375 168.5625 196.75 C168.11003906 195.96109375 167.65757812 195.1721875 167.19140625 194.359375 C165.27924776 190.57267426 164.87549605 187.46626882 164.9375 183.25 C164.94652344 182.45078125 164.95554687 181.6515625 164.96484375 180.828125 C164.98224609 179.92320312 164.98224609 179.92320312 165 179 C168.47823115 177.84058962 170.45895578 178.29179116 174 179 C173.57847656 178.32453125 173.15695312 177.6490625 172.72265625 176.953125 C171.90087891 175.61507812 171.90087891 175.61507812 171.0625 174.25 C170.24458984 172.92742187 170.24458984 172.92742187 169.41015625 171.578125 C167.28230853 167.68787709 166.87283027 164.64754159 166.9375 160.25 C166.94652344 159.45078125 166.95554687 158.6515625 166.96484375 157.828125 C166.98224609 156.92320312 166.98224609 156.92320312 167 156 C168.32 155.67 169.64 155.34 171 155 C170.4946875 154.03578125 169.989375 153.0715625 169.46875 152.078125 C168.8120761 150.80230143 168.15584945 149.52624758 167.5 148.25 C167.16613281 147.61578125 166.83226562 146.9815625 166.48828125 146.328125 C164.72824467 142.87989007 164 140.95159931 164 137 C165.485 136.01 165.485 136.01 167 135 C166.63661643 130.03375792 165.05796388 127.48176475 162.1484375 123.6640625 C160.6279369 121.46088817 160.14393157 119.66273411 160 117 C160.3403125 116.071875 160.3403125 116.071875 160.6875 115.125 C161.22296911 111.48381007 158.91728571 109.02117749 157 106 C156.34 106 155.68 106 155 106 C153.10636122 102.71769278 152.5439224 99.72975357 152 96 C151.40698703 92.77065766 150.35606482 90.8709788 148.3125 88.3125 C144.18066344 82.99164573 140.49716284 77.40453426 136.9375 71.6875 C135.11913496 68.91210651 135.11913496 68.91210651 132.5 67 C130 65 130 65 128.1875 62.1875 C125.79109899 58.69560139 123.16844818 56.36764126 119.94921875 53.66015625 C117.49657169 51.57122839 115.27725237 49.27725237 113 47 C107.59593285 42.06549356 101.68143602 39.08105983 95.1640625 35.83789062 C91.06090045 33.75014391 87.36953751 31.61661986 83.75390625 28.75390625 C80.61109055 26.30666385 78.35883353 25.23287829 74.3125 24.875 C68.47948381 24.16166299 63.19196707 22.6362098 57.6171875 20.8046875 C55.13773646 19.90203822 55.13773646 19.90203822 53 20 C53 19.34 53 18.68 53 18 C26.95634049 17.6576956 -8.90177305 17.47746218 -28.96484375 36.90234375 Z M97 26 C97.66 26.66 98.32 27.32 99 28 C101.60280568 27.67958603 101.60280568 27.67958603 104 27 C104 26.67 104 26.34 104 26 C101.69 26 99.38 26 97 26 Z M146 36 C147 39 147 39 147 39 Z M145 39 C144.34 41.31 143.68 43.62 143 46 C143.99 46.495 143.99 46.495 145 47 C146.35439668 44.29120665 146.06501451 41.99066732 146 39 C145.67 39 145.34 39 145 39 Z M143 53 C142.67 53.66 142.34 54.32 142 55 C142.99 54.67 143.98 54.34 145 54 C144.34 53.67 143.68 53.34 143 53 Z M129 56 C129.33 56.66 129.66 57.32 130 58 C130.99 57.67 131.98 57.34 133 57 C131.68 56.67 130.36 56.34 129 56 Z M161 61 C161 64 161 64 161 64 Z M156 71 C155.67 71.66 155.34 72.32 155 73 C157.97 73.495 157.97 73.495 161 74 C160.34 73.01 159.68 72.02 159 71 C158.01 71 157.02 71 156 71 Z M143 72 C143.33 72.99 143.66 73.98 144 75 C145.65 75 147.3 75 149 75 C149 74.01 149 73.02 149 72 C147.02 72 145.04 72 143 72 Z M178 75 C179 77 179 77 179 77 Z M175 81 C176 84 176 84 176 84 Z M155 91 C155 91.99 155 92.98 155 94 C160.32170494 94.29562367 160.32170494 94.29562367 165 92 C161.7 91.67 158.4 91.34 155 91 Z M170 91 C170.33 92.32 170.66 93.64 171 95 C171.99 95 172.98 95 174 95 C173.67 93.68 173.34 92.36 173 91 C172.01 91 171.02 91 170 91 Z M187 103 C186.34 104.32 185.68 105.64 185 107 C185.66 107 186.32 107 187 107 C187.33 105.68 187.66 104.36 188 103 C187.67 103 187.34 103 187 103 Z M164 113 C164.33 113.66 164.66 114.32 165 115 C168.3 115 171.6 115 175 115 C175 114.67 175 114.34 175 114 C171.37 113.67 167.74 113.34 164 113 Z M181 113 C181.33 114.65 181.66 116.3 182 118 C182.33 117.01 182.66 116.02 183 115 C182.34 114.34 181.68 113.68 181 113 Z M193 128 C193 128.99 193 129.98 193 131 C193.66 130.01 194.32 129.02 195 128 C194.34 128 193.68 128 193 128 Z M169 133 C171.72606304 136.28814599 171.72606304 136.28814599 175.75 137.25 C176.4925 137.1675 177.235 137.085 178 137 C175.01353231 135.00902154 172.40312738 134.05875074 169 133 Z M179 137 C181.38573379 138.89213369 183.07175348 140.02391783 186 141 C185.67 140.01 185.34 139.02 185 138 C182.03 137.505 182.03 137.505 179 137 Z M200 151 C199.67 151.66 199.34 152.32 199 153 C199.99 152.67 200.98 152.34 202 152 C201.34 151.67 200.68 151.34 200 151 Z M196 153 C195.67 154.32 195.34 155.64 195 157 C196.32 155.68 197.64 154.36 199 153 C198.01 153 197.02 153 196 153 Z M175 157 C175.33 157.66 175.66 158.32 176 159 C176.99 158.67 177.98 158.34 179 158 C177.68 157.67 176.36 157.34 175 157 Z M180 159 C180.7425 159.70125 181.485 160.4025 182.25 161.125 C184.256616 163.22282582 185.71089669 164.93028495 187.25 167.3125 C187.8275 168.199375 188.405 169.08625 189 170 C189.33 170 189.66 170 190 170 C189.67 167.03 189.34 164.06 189 161 C184.545 160.01 184.545 160.01 180 159 Z M186 180 C186.33 180.99 186.66 181.98 187 183 C187.33 182.01 187.66 181.02 188 180 C187.34 180 186.68 180 186 180 Z M184 185 C184.66 186.65 185.32 188.3 186 190 C186.33 190 186.66 190 187 190 C187 188.35 187 186.7 187 185 C186.01 185 185.02 185 184 185 Z M189 202 C187.12456646 205.86763446 187.12456646 205.86763446 188 210 C190.34973818 208.10244856 190.34973818 208.10244856 190.125 204.875 C190.063125 203.451875 190.063125 203.451875 190 202 C189.67 202 189.34 202 189 202 Z M176 206 C177.32 208.31 178.64 210.62 180 213 C180.33 213 180.66 213 181 213 C181 211.35 181 209.7 181 208 C178.525 207.01 178.525 207.01 176 206 Z M183 225 C181.37168238 226.80961577 181.37168238 226.80961577 180 229 C180.33 229.99 180.66 230.98 181 232 C182.65 230.35 184.3 228.7 186 227 C185.01 226.34 184.02 225.68 183 225 Z M157 247 C157.66 250.63 158.32 254.26 159 258 C160.32 256.35 161.64 254.7 163 253 C161.35830472 250.97945196 159.69088222 248.97956942 158 247 C157.67 247 157.34 247 157 247 Z M172 249 C170.515 250.98 170.515 250.98 169 253 C172.465 252.505 172.465 252.505 176 252 C176 251.34 176 250.68 176 250 C174.68 249.67 173.36 249.34 172 249 Z M143 263 C144 265 144 265 144 265 Z M144 265 C144.33 268.63 144.66 272.26 145 276 C145.99 275.34 146.98 274.68 148 274 C147.41789544 269.80884715 146.71843438 268.62457917 144 265 Z M156.3125 271.5 C155.879375 271.995 155.44625 272.49 155 273 C155.33 273.66 155.66 274.32 156 275 C160.455 274.505 160.455 274.505 165 274 C165 273.34 165 272.68 165 272 C160.59296038 269.49430819 160.59296038 269.49430819 156.3125 271.5 Z M128 279 C128.33 283.29 128.66 287.58 129 292 C129.99 291.34 130.98 290.68 132 290 C131.71125 288.741875 131.4225 287.48375 131.125 286.1875 C130.96257812 285.47980469 130.80015625 284.77210938 130.6328125 284.04296875 C130.01992277 281.72257026 130.01992277 281.72257026 128 279 Z M142 288 C140.35 289.98 138.7 291.96 137 294 C141.29 294 145.58 294 150 294 C146.52263974 290.21965377 146.52263974 290.21965377 142 288 Z M111 295 C110.87625 295.515625 110.7525 296.03125 110.625 296.5625 C108.42105263 305.15789474 108.42105263 305.15789474 107 308 C109.49361571 306.79618552 111.68143083 305.54571278 114 304 C113.34 301.03 112.68 298.06 112 295 C111.67 295 111.34 295 111 295 Z M118.875 306.5 C118.15054687 306.9640625 117.42609375 307.428125 116.6796875 307.90625 C116.12539063 308.2671875 115.57109375 308.628125 115 309 C117.51926127 309.70039807 119.34268768 309.99286067 122 309.9375 C125.07392324 310.00154007 126.34775351 310.62814837 129 312 C129.99 311.67 130.98 311.34 132 311 C131.030625 310.21625 130.06125 309.4325 129.0625 308.625 C127.16037654 307.08711295 126.10370043 306.20740087 125 304 C122.32449708 304 121.10955359 305.05835252 118.875 306.5 Z M91 306 C90.80664062 306.67546875 90.61328125 307.3509375 90.4140625 308.046875 C90.15367187 308.93890625 89.89328125 309.8309375 89.625 310.75 C89.36976563 311.63171875 89.11453125 312.5134375 88.8515625 313.421875 C88 316 88 316 86 320 C88.64 318.68 91.28 317.36 94 316 C93.34 312.7 92.68 309.4 92 306 C91.67 306 91.34 306 91 306 Z M100 318 C99.01 319.485 99.01 319.485 98 321 C100.97 321.495 100.97 321.495 104 322 C103.67 320.68 103.34 319.36 103 318 C102.01 318 101.02 318 100 318 Z M46 348 C50 349 50 349 50 349 Z " fill="#F0ECEB" transform="translate(211,34)"/>
<path d="M0 0 C1.04244873 0.00161133 2.08489746 0.00322266 3.15893555 0.00488281 C12.73177283 0.14675414 22.18454512 1.03785383 31.6875 2.125 C32.41640442 2.20341125 33.14530884 2.28182251 33.89630127 2.36260986 C35.98196615 2.59183682 38.06291717 2.84612742 40.14453125 3.109375 C41.34698486 3.25600586 42.54943848 3.40263672 43.78833008 3.55371094 C47.39163651 4.51246462 48.77413283 5.29816727 50.875 8.375 C51.26904297 11.44360352 51.26904297 11.44360352 51.1171875 15.00390625 C51.04371094 16.92686523 51.04371094 16.92686523 50.96875 18.88867188 C50.93265625 19.55310303 50.8965625 20.21753418 50.859375 20.90209961 C50.75020018 22.93377487 50.67332914 24.96474069 50.6015625 26.99804688 C50.16098804 36.94601794 50.16098804 36.94601794 47.875 40.375 C45.9921875 40.2265625 45.9921875 40.2265625 43.875 39.375 C42.8203125 36.8984375 42.8203125 36.8984375 42 33.75 C39.89168393 26.94038145 37.68816544 22.59833128 31.4296875 18.94921875 C28.62041692 17.59260518 25.80127978 16.45455997 22.875 15.375 C22.06546875 15.05402344 21.2559375 14.73304688 20.421875 14.40234375 C7.18236755 9.92672409 -10.21606161 10.77186075 -22.82421875 16.62890625 C-33.4367836 22.45074676 -39.35744802 31.1330959 -42.875 42.5 C-47.36231277 61.92858498 -44.33266557 82.38375921 -34.125 99.375 C-32.23850062 101.86699154 -30.25871453 104.08516001 -28.125 106.375 C-28.125 107.035 -28.125 107.695 -28.125 108.375 C-27.55523437 108.64441406 -26.98546875 108.91382813 -26.3984375 109.19140625 C-23.26507798 110.82269136 -20.44219334 112.83432404 -17.5390625 114.83984375 C-5.90529893 122.23801378 8.28942089 123.8772375 21.671875 121.35546875 C22.64995117 121.17266357 23.62802734 120.9898584 24.63574219 120.80151367 C25.37469727 120.66076416 26.11365234 120.52001465 26.875 120.375 C26.92451099 114.62753551 26.9607723 108.88019573 26.98486328 103.13256836 C26.99490853 101.17811927 27.00854717 99.22368516 27.02587891 97.26928711 C27.05019203 94.45683083 27.06149797 91.64457361 27.0703125 88.83203125 C27.08063507 87.96101273 27.09095764 87.0899942 27.10159302 86.19258118 C27.10239199 81.85307124 27.06759448 78.25942309 24.875 74.375 C21.81083081 72.84291541 18.57792458 73.09212909 15.1875 72.94921875 C12.875 72.375 12.875 72.375 11.5625 70.33203125 C11.2221875 69.36330078 11.2221875 69.36330078 10.875 68.375 C12.875 66.375 12.875 66.375 14.96228027 66.12776184 C16.25228943 66.12989937 16.25228943 66.12989937 17.56835938 66.13208008 C18.54276978 66.12900345 19.51718018 66.12592682 20.52111816 66.12275696 C21.57633667 66.12994247 22.63155518 66.13712799 23.71875 66.14453125 C24.79878296 66.14498947 25.87881592 66.14544769 26.99157715 66.1459198 C29.27808733 66.14894467 31.5645954 66.15683791 33.85107422 66.16918945 C37.36042544 66.18742427 40.86951265 66.18969933 44.37890625 66.18945312 C46.59635646 66.194369 48.81380487 66.20019762 51.03125 66.20703125 C52.08646851 66.20814407 53.14168701 66.2092569 54.22888184 66.21040344 C55.20329224 66.21678329 56.17770264 66.22316315 57.18164062 66.22973633 C58.04164673 66.23354813 58.90165283 66.23735992 59.78771973 66.24128723 C61.875 66.375 61.875 66.375 63.875 67.375 C63.875 68.695 63.875 70.015 63.875 71.375 C63.17632812 71.53355469 62.47765625 71.69210938 61.7578125 71.85546875 C60.84773437 72.08878906 59.93765625 72.32210937 59 72.5625 C58.09507812 72.78292969 57.19015625 73.00335938 56.2578125 73.23046875 C53.76122693 74.15644148 53.76122693 74.15644148 52.74316406 76.30737305 C51.48742696 80.74447561 51.59674102 85.01175531 51.6015625 89.6015625 C51.58128611 91.6224015 51.56043558 93.6432348 51.5390625 95.6640625 C51.51639924 98.84184603 51.49996444 102.01940478 51.49414062 105.19726562 C51.4846512 108.26994101 51.4509328 111.34161111 51.4140625 114.4140625 C51.41910797 115.36721344 51.42415344 116.32036438 51.42935181 117.30239868 C51.3310313 123.85971179 51.3310313 123.85971179 49.07128906 126.41308594 C45.78253667 127.85346882 42.4359037 128.97868551 39 130 C38.30519531 130.2165625 37.61039063 130.433125 36.89453125 130.65625 C30.25687905 132.68129643 23.92677575 133.54059106 16.9765625 133.61328125 C15.84763077 133.62538887 15.84763077 133.62538887 14.69589233 133.63774109 C13.10408788 133.65152005 11.51225466 133.66226964 9.92041016 133.67016602 C8.32461618 133.68159444 6.72885759 133.70189826 5.13330078 133.73168945 C-16.46483237 134.13365097 -36.07069465 128.98664487 -52.484375 114.2578125 C-55.98443758 110.87271548 -58.77907701 107.67585882 -61.125 103.375 C-61.785 103.045 -62.445 102.715 -63.125 102.375 C-63.36605469 103.09558594 -63.60710937 103.81617188 -63.85546875 104.55859375 C-65.30213283 107.76796237 -67.05824863 109.85031406 -69.4375 112.4375 C-70.57638672 113.69240234 -70.57638672 113.69240234 -71.73828125 114.97265625 C-76.18518794 119.44867525 -80.88683167 122.54073749 -86.5 125.375 C-87.42232422 125.87 -87.42232422 125.87 -88.36328125 126.375 C-101.33085331 132.94866029 -114.02756668 133.96010659 -128.25 133.6875 C-129.93707879 133.6697283 -131.62417332 133.65339817 -133.3112793 133.63842773 C-138.58326068 133.58300183 -143.8538424 133.48146613 -149.125 133.375 C-150.91845417 133.34164249 -152.71191121 133.30843929 -154.50537109 133.27539062 C-159.64979659 133.17760873 -164.79368138 133.06305998 -169.9375 132.9375 C-171.15049774 132.90857162 -171.15049774 132.90857162 -172.38800049 132.87905884 C-174.6612188 132.82234332 -176.93409507 132.75839569 -179.20703125 132.69140625 C-181.14412964 132.63641968 -181.14412964 132.63641968 -183.12036133 132.58032227 C-186.125 132.375 -186.125 132.375 -188.125 131.375 C-187.90234375 129.46484375 -187.90234375 129.46484375 -187.125 127.375 C-184.86876162 126.39037934 -182.64996228 125.9288838 -180.25390625 125.37890625 C-177.98440005 124.55594192 -177.98440005 124.55594192 -177.00811768 122.44044495 C-175.74386145 118.05200617 -175.84680452 113.86927649 -175.86621094 109.32397461 C-175.8627063 108.31529831 -175.85920166 107.30662201 -175.85559082 106.26737976 C-175.84679698 102.93729751 -175.85261403 99.60742812 -175.859375 96.27734375 C-175.85802778 93.96236633 -175.85608678 91.64738918 -175.85357666 89.33241272 C-175.85062866 84.4828929 -175.85491308 79.63344679 -175.86425781 74.78393555 C-175.87565846 68.56396851 -175.86908686 62.34417395 -175.85711288 56.12421322 C-175.84989101 51.34504391 -175.85218363 46.5659156 -175.85736847 41.78674507 C-175.85870373 39.49298647 -175.85706158 37.19922416 -175.85240936 34.90546989 C-175.84733815 31.70242299 -175.85506268 28.49965682 -175.86621094 25.29663086 C-175.86216248 24.34639038 -175.85811401 23.3961499 -175.85394287 22.41711426 C-175.85958252 21.54376938 -175.86522217 20.6704245 -175.87103271 19.77061462 C-175.87216379 18.63548888 -175.87216379 18.63548888 -175.87331772 17.4774313 C-176.16682979 15.02557427 -176.77588506 13.44103529 -178.125 11.375 C-180.99211888 10.45247807 -180.99211888 10.45247807 -184.25 10.125 C-185.34570312 9.97546875 -186.44140625 9.8259375 -187.5703125 9.671875 C-188.41335937 9.57390625 -189.25640625 9.4759375 -190.125 9.375 C-190.455 7.725 -190.785 6.075 -191.125 4.375 C-188.31509569 2.97004784 -185.97694533 3.23997619 -182.83374023 3.22973633 C-182.18775879 3.22637772 -181.54177734 3.2230191 -180.8762207 3.21955872 C-178.72865899 3.21002311 -176.58117536 3.20810277 -174.43359375 3.20703125 C-172.93018055 3.20381498 -171.42676766 3.20045063 -169.9233551 3.19694519 C-166.75822223 3.19094361 -163.59311668 3.1891058 -160.42797852 3.18969727 C-156.42093003 3.1897977 -152.41406356 3.17627539 -148.40705776 3.15892506 C-145.29156232 3.14765008 -142.17610829 3.14578291 -139.06059456 3.14630699 C-137.58698984 3.14514503 -136.11338338 3.14082676 -134.63979912 3.13297462 C-109.38121446 3.01123221 -86.95727345 6.29732984 -68.125 24.375 C-67.55007812 24.90996094 -66.97515625 25.44492188 -66.3828125 25.99609375 C-65.24963416 27.07485392 -64.17743021 28.21732677 -63.125 29.375 C-63.125 30.035 -63.125 30.695 -63.125 31.375 C-62.135 31.375 -61.145 31.375 -60.125 31.375 C-59.86332031 30.63765625 -59.60164062 29.9003125 -59.33203125 29.140625 C-53.58393084 15.97022019 -38.71363887 8.57119353 -26.0234375 3.56640625 C-17.55292541 0.75265655 -8.87548262 -0.01472987 0 0 Z M-151.125 15.375 C-151.19452392 28.04895348 -151.24782357 40.72286156 -151.28043652 53.39696693 C-151.29608943 59.28212853 -151.31732117 65.16715961 -151.35131836 71.05224609 C-151.3839247 76.73214373 -151.40185583 82.41191586 -151.40963173 88.09189987 C-151.41517291 90.25842642 -151.42599345 92.42494613 -151.44219017 94.59141922 C-151.46398105 97.62701489 -151.46696619 100.66209255 -151.46557617 103.69775391 C-151.476362 104.59255463 -151.48714783 105.48735535 -151.4982605 106.40927124 C-151.47327927 111.4541983 -151.03919003 115.05857804 -148.125 119.375 C-136.521933 125.49298078 -120.98203977 125.05783034 -108.5 121.8125 C-98.27515492 118.34768283 -89.11214725 112.52516844 -83.125 103.375 C-76.21357848 87.78411889 -75.06032172 66.13067672 -80.1875 49.875 C-86.29027548 34.92662859 -95.51297862 25.23127949 -110.125 18.375 C-120.78007121 14.35421841 -140.51389902 10.06944951 -151.125 15.375 Z " fill="#F4F1F0" transform="translate(289.125,148.625)"/>
<path d="M0 0 C1.9375 1.5625 1.9375 1.5625 3 3 C3.680625 2.319375 4.36125 1.63875 5.0625 0.9375 C8 -1 8 -1 11.625 -1 C15 0 15 0 16.8125 1.5 C20.66708519 9.61491619 20.10868529 17.82230688 19.625 26.5625 C19.53992188 28.36170898 19.53992188 28.36170898 19.453125 30.19726562 C19.31280871 33.13221474 19.16151952 36.06615435 19 39 C15.25 40.125 15.25 40.125 13 39 C12.97494385 38.13197754 12.9498877 37.26395508 12.92407227 36.36962891 C12.82900516 33.15286837 12.72976797 29.93627151 12.62768555 26.71972656 C12.58434154 25.3268741 12.54266604 23.93396869 12.50268555 22.54101562 C12.44497068 20.54023349 12.38078131 18.53964141 12.31640625 16.5390625 C12.27974854 15.33459473 12.24309082 14.13012695 12.20532227 12.88916016 C12.18947013 10.06003633 12.18947013 10.06003633 11 8 C7.70924004 8.37904208 7.70924004 8.37904208 5 10 C4.84141158 12.14386657 4.74870702 14.29266838 4.68359375 16.44140625 C4.64169922 17.74658203 4.59980469 19.05175781 4.55664062 20.39648438 C4.51682392 21.7851533 4.47711175 23.17382522 4.4375 24.5625 C4.39432011 25.95509183 4.350706 27.34767028 4.30664062 28.74023438 C4.20014124 32.16004801 4.09813077 35.57993763 4 39 C2.125 39.625 2.125 39.625 0 40 C-2 38 -2 38 -2.22705078 35.01904297 C-2.21657715 33.77268066 -2.20610352 32.52631836 -2.1953125 31.2421875 C-2.1924826 30.57913605 -2.18965271 29.91608459 -2.18673706 29.23294067 C-2.17553435 27.11344417 -2.15043051 24.99436896 -2.125 22.875 C-2.11497028 21.43880818 -2.10584441 20.00260975 -2.09765625 18.56640625 C-2.075595 15.04413372 -2.04106494 11.52210797 -2 8 C-5.04386724 7.91773332 -7.07175348 8.02391783 -10 9 C-10.33 18.9 -10.66 28.8 -11 39 C-12.98 39.495 -12.98 39.495 -15 40 C-17 38 -17 38 -17.22705078 34.37646484 C-17.22673357 32.82125311 -17.21540299 31.26601949 -17.1953125 29.7109375 C-17.1924826 28.89251373 -17.18965271 28.07408997 -17.18673706 27.23086548 C-17.17552532 24.61209607 -17.15041929 21.99366636 -17.125 19.375 C-17.11497147 17.60156743 -17.1058454 15.82812951 -17.09765625 14.0546875 C-17.07558278 9.70299374 -17.04104644 5.3515545 -17 1 C-14.23735711 0.40267181 -11.83967231 0 -9 0 C-5.85000502 -1.57499749 -3.36459118 -0.70833498 0 0 Z " fill="#E2DEDC" transform="translate(116,430)"/>
<path d="M0 0 C4.83472492 4.28532436 6.49722489 8.62269466 7 15 C7.27357414 30.88339244 7.27357414 30.88339244 2.3515625 37.6171875 C-0.056841 40.08127663 -1.6191138 40.97668044 -5.0625 41.1875 C-8 41 -8 41 -10 40 C-10 44.62 -10 49.24 -10 54 C-11.98 54.495 -11.98 54.495 -14 55 C-16 53 -16 53 -16.24050903 50.82333374 C-16.23606781 49.92176544 -16.23162659 49.02019714 -16.22705078 48.09130859 C-16.22689972 47.07040131 -16.22674866 46.04949402 -16.22659302 44.99765015 C-16.21627045 43.89240997 -16.20594788 42.7871698 -16.1953125 41.6484375 C-16.1924826 40.5192691 -16.18965271 39.39010071 -16.18673706 38.22671509 C-16.17551462 34.60937029 -16.15040622 30.99227034 -16.125 27.375 C-16.11497287 24.9270869 -16.10584656 22.47916993 -16.09765625 20.03125 C-16.07556857 14.02074936 -16.04207074 8.01039217 -16 2 C-13.23735711 1.40267181 -10.83967231 1 -8 1 C-5.074084 -0.462958 -3.24382653 -0.44523109 0 0 Z M-10 11 C-10.56498133 13.29312132 -10.56498133 13.29312132 -10.42578125 15.8515625 C-10.41740234 16.78484375 -10.40902344 17.718125 -10.40039062 18.6796875 C-10.35688477 20.13761719 -10.35688477 20.13761719 -10.3125 21.625 C-10.30283203 22.6046875 -10.29316406 23.584375 -10.28320312 24.59375 C-10.61706596 29.13781683 -10.61706596 29.13781683 -9 33 C-6.0842309 33.41702122 -6.0842309 33.41702122 -3 33 C1.1374413 28.74462688 1.01563265 23.66683615 1 18 C0.4809235 14.06894503 -0.11417266 10.88582734 -3 8 C-6.56120158 8 -7.49457779 8.54346894 -10 11 Z " fill="#E4E0DD" transform="translate(156,429)"/>
<path d="M0 0 C2.7557409 1.21803748 4.85849903 2.85849903 7 5 C7.04092937 7.33297433 7.04241723 9.66705225 7 12 C5.68 12 4.36 12 3 12 C2.566875 11.525625 2.13375 11.05125 1.6875 10.5625 C-1.04403048 8.03330511 -3.35932264 8 -7 8 C-10.7533481 10.50223207 -12.23487126 12.98438624 -13.3125 17.25 C-14.83818562 26.02632491 -14.75825693 35.17305038 -10.25 43.0625 C-8.11439184 45.25008768 -8.11439184 45.25008768 -5.0625 45.4375 C-2.0139306 45.00199009 0.29347899 44.46925426 3 43 C3.33 42.01 3.66 41.02 4 40 C5.485 40.495 5.485 40.495 7 41 C7.4871134 47.33247423 7.4871134 47.33247423 5.3125 50.3125 C1.39555613 53.17081039 -0.95394178 54 -5.875 54 C-10.74629693 53.20806893 -13.86034689 50.71428458 -17 47 C-22.39789767 36.92392434 -22.46837494 23.89110851 -19.8125 12.9375 C-16.67290811 2.93842063 -10.3887291 -1.37118319 0 0 Z " fill="#E9E6E4" transform="translate(288,417)"/>
<path d="M0 0 C3.63292616 3.32153249 4.9511648 7.69137822 5.44262695 12.4921875 C5.51770023 15.16770881 5.49892384 17.82422391 5.4375 20.5 C5.43234375 21.39847656 5.4271875 22.29695313 5.421875 23.22265625 C5.35975091 28.55756234 4.95226764 33.7206363 4.1875 39 C1.1875 40 1.1875 40 -0.625 39.4375 C-2.97936758 38.76420973 -2.97936758 38.76420973 -5.75 40.125 C-8.8125 41 -8.8125 41 -11.5 39.9375 C-14.952559 37.04481543 -16.59329708 34.9938457 -17.09765625 30.40625 C-17.25794778 25.22116749 -17.38274846 21.08028396 -13.8125 17 C-10.31577154 13.37376308 -6.62652706 13.40116892 -1.8125 13 C-2.1425 11.35 -2.4725 9.7 -2.8125 8 C-6.81450378 6.39919849 -9.85806236 7.70720308 -13.8125 9 C-14.8125 8 -14.8125 8 -14.875 4.4375 C-14.854375 3.303125 -14.83375 2.16875 -14.8125 1 C-10.22475458 -2.05849695 -4.99020669 -1.77429571 0 0 Z M-9.8125 22 C-11.31912097 25.01324195 -10.99020373 27.68286377 -10.8125 31 C-10.1525 31.66 -9.4925 32.32 -8.8125 33 C-6.30202515 33.06546898 -6.30202515 33.06546898 -3.8125 32 C-0.53550264 28.15800309 -0.52315983 24.91878297 -0.8125 20 C-4.41085033 19.80009165 -6.75103104 20.03191281 -9.8125 22 Z " fill="#E9E5E3" transform="translate(324.8125,430)"/>
<path d="M0 0 C4.25905465 2.8666714 6.49953031 5.11996773 8 10 C8.1953125 13.11328125 8.1953125 13.11328125 8.125 16.3125 C8.10695312 17.38113281 8.08890625 18.44976562 8.0703125 19.55078125 C8.04710937 20.35902344 8.02390625 21.16726563 8 22 C4.43954823 23.18681726 1.56191663 23.09689832 -2.1875 23.0625 C-3.45980469 23.05347656 -4.73210937 23.04445313 -6.04296875 23.03515625 C-7.50669922 23.01775391 -7.50669922 23.01775391 -9 23 C-8.52449439 24.48034764 -8.04448784 25.95925021 -7.5625 27.4375 C-7.29566406 28.26121094 -7.02882812 29.08492188 -6.75390625 29.93359375 C-6.17844506 31.96219588 -6.17844506 31.96219588 -5 33 C-0.24395734 33.53624939 -0.24395734 33.53624939 3.8125 31.5 C4.204375 31.005 4.59625 30.51 5 30 C5.66 30 6.32 30 7 30 C8.33935585 36.45326002 8.33935585 36.45326002 6.875 38.8125 C3.24712606 41.1101535 0.87189232 42.01556951 -3.5 41.9375 C-8.86139461 40.50141216 -10.92332548 37.70782855 -13.8125 33.125 C-16.8081162 25.31928007 -16.14217185 14.50567562 -13.04296875 6.80859375 C-10.10848512 1.71995734 -6.03002506 -1.25625522 0 0 Z M-6.125 8.6875 C-8.43791833 11.17356336 -8.43791833 11.17356336 -9 16 C-5.37 16 -1.74 16 2 16 C1.67039784 10.98464948 1.67039784 10.98464948 -1 7 C-4.06070069 6.68905893 -4.06070069 6.68905893 -6.125 8.6875 Z " fill="#E8E5E3" transform="translate(224,429)"/>
<path d="M0 0 C3.62324873 1.74692349 5.50991137 2.69309699 6.9375 6.5 C6.99764869 8.90594769 6.75815679 10.72552963 6 13 C5.01 12.67 4.02 12.34 3 12 C3 11.34 3 10.68 3 10 C-2.37486498 7.93722776 -2.37486498 7.93722776 -8 8 C-12.18586678 12.06627059 -13.77627791 16.54777347 -14.30078125 22.296875 C-14.32500677 29.43532871 -14.2707469 36.48542593 -11 43 C-7.51195905 45.32536063 -6.09859246 45.33457898 -2 45 C0.99406599 43.88791835 2.86209051 42.35170044 5 40 C6 41 6 41 6.4375 44.8125 C6.40625 46.9921875 6.40625 46.9921875 6 49 C2.08339171 52.72555423 -1.65369497 53.80558891 -7 54 C-11.43260845 53.13510079 -13.68721452 50.49930901 -16.5703125 47.2421875 C-20.43863075 41.17548074 -21.50740889 35.29318875 -21.375 28.1875 C-21.36557373 27.40213867 -21.35614746 26.61677734 -21.34643555 25.80761719 C-21.1089985 16.6090601 -19.88299462 8.54723879 -13 2 C-8.75680567 -0.53888853 -4.83103046 -0.67701292 0 0 Z " fill="#E4E0DD" transform="translate(64,417)"/>
<path d="M0 0 C2.92573088 2.29314042 4.64245533 4.56206221 6 8 C6.26262541 12.34907676 6.08723298 16.63835086 6 21 C0.72 21.33 -4.56 21.66 -10 22 C-9.690625 23.27875 -9.38125 24.5575 -9.0625 25.875 C-8.88847656 26.59429687 -8.71445312 27.31359375 -8.53515625 28.0546875 C-8.05153008 30.0585657 -8.05153008 30.0585657 -7 32 C-2.1607918 32.27918509 0.34080669 32.25261627 4 29 C4.66 29 5.32 29 6 29 C7 32 7 32 6.5 35 C5 38 5 38 1.8125 40 C-2.73807079 41.19359234 -4.72440519 40.90026436 -9 39 C-13.94294645 34.93579959 -15.75757584 31.18009592 -16.75 25 C-17.34783069 18.25466503 -17.1319963 10.57510243 -13.59765625 4.6484375 C-9.25019008 -0.5175003 -6.82482377 -1.52970188 0 0 Z M-7.6875 7.0625 C-9.38480005 9.56803817 -10.16387448 12.10571935 -11 15 C-7.04 15 -3.08 15 1 15 C0.34 12.36 -0.32 9.72 -1 7 C-4.45868136 5.86070127 -4.45868136 5.86070127 -7.6875 7.0625 Z " fill="#EAE6E4" transform="translate(394,430)"/>
<path d="M0 0 C4.23852891 3.17889668 6.44808906 7.00001391 8 12 C8.39965086 14.82712202 8.42986704 17.58600878 8.375 20.4375 C8.36629883 21.18668701 8.35759766 21.93587402 8.34863281 22.70776367 C8.17381029 29.27435571 7.20748467 34.03131372 3.1875 39.4375 C0.3563872 41.45972343 -1.52374805 41.92905608 -5 42 C-8.6849677 40.37175846 -10.97367733 38.473696 -13 35 C-16.31149773 25.0410677 -16.42265248 14.65285578 -12.265625 4.953125 C-9.1057124 0.07671667 -5.64601945 -0.79242378 0 0 Z M-6.1875 8.6875 C-10.22402337 13.83754705 -9.48913585 20.74721335 -9 27 C-8.24895773 29.61554836 -7.31094621 31.59659861 -6 34 C-4.35 34 -2.7 34 -1 34 C1.61682647 29.4706117 2.38685636 26.21638484 2.3125 21 C2.30863281 19.824375 2.30476563 18.64875 2.30078125 17.4375 C1.99722557 13.96829228 1.33788492 11.20901934 0 8 C-2.84133901 6.2951966 -3.57741228 6.67400376 -6.1875 8.6875 Z " fill="#E8E4E2" transform="translate(87,429)"/>
<path d="M0 0 C1.67542976 0.28604898 3.34385343 0.61781233 5 1 C5.9911382 3.97341461 6.09136435 5.80230778 6.02734375 8.89453125 C6.01509766 9.85037109 6.00285156 10.80621094 5.99023438 11.79101562 C5.95528133 13.79369573 5.9162667 15.79630937 5.87304688 17.79882812 C5.81420774 22.9524443 5.91205757 27.17726238 8 32 C11.24983135 30.91215032 11.24983135 30.91215032 14 29 C14.1584265 26.9291528 14.25124422 24.85321971 14.31640625 22.77734375 C14.35830078 21.51728516 14.40019531 20.25722656 14.44335938 18.95898438 C14.48317596 17.61849264 14.52288814 16.2779978 14.5625 14.9375 C14.60568042 13.59308477 14.64929456 12.2486834 14.69335938 10.90429688 C14.79985358 7.6029766 14.9018646 4.30157764 15 1 C16.65614657 0.61781233 18.32457024 0.28604898 20 0 C21 1 21 1 21.11352539 4.51000977 C21.11336626 6.07048422 21.10767142 7.63096393 21.09765625 9.19140625 C21.0962413 10.01124496 21.09482635 10.83108368 21.09336853 11.67576599 C21.08775289 14.30471382 21.07519779 16.93357773 21.0625 19.5625 C21.05748701 21.34049357 21.05292376 23.11848846 21.04882812 24.89648438 C21.03777839 29.26435545 21.02050331 33.63216348 21 38 C19.1875 39.0625 19.1875 39.0625 17 40 C15.515 39.505 15.515 39.505 14 39 C13.071875 39.495 13.071875 39.495 12.125 40 C9.27318097 41.34203248 7.94963621 41.03237267 5 40 C1.58659321 37.75690411 0.70148513 35.50388871 -0.1015625 31.65625 C-1.26614483 25.41560159 -1.2577048 19.26701706 -1.1875 12.9375 C-1.18685547 11.79861328 -1.18621094 10.65972656 -1.18554688 9.48632812 C-1.14070472 1.14070472 -1.14070472 1.14070472 0 0 Z " fill="#E9E5E4" transform="translate(167,430)"/>
<path d="M0 0 C0.99 0.66 1.98 1.32 3 2 C3.40843923 4.71203652 3.13336867 7.2437142 3 10 C0.03824877 9.38722388 -1.38058783 8.74627478 -4 7 C-6.64632287 7.3121764 -6.64632287 7.3121764 -9 8 C-9 9.98 -9 11.96 -9 14 C-8.38511719 14.25394531 -7.77023437 14.50789063 -7.13671875 14.76953125 C-6.32847656 15.11371094 -5.52023437 15.45789063 -4.6875 15.8125 C-3.88699219 16.14894531 -3.08648437 16.48539062 -2.26171875 16.83203125 C1.32947176 18.68654932 2.71685735 20.15057205 4 24 C4.61057126 27.98803506 4.82582008 31.5035475 2.8359375 35.109375 C0.64077457 37.83362849 -1.21417893 39.65746261 -4.4375 41.0625 C-8.89248397 40.95384185 -12.80306053 40.19693947 -16 37 C-16.125 33.375 -16.125 33.375 -16 30 C-13 30 -13 30 -10 32 C-7.67612053 32.39387788 -5.34206251 32.73486085 -3 33 C-3 30.36 -3 27.72 -3 25 C-3.90492188 24.76216797 -3.90492188 24.76216797 -4.828125 24.51953125 C-8.59803755 23.41896001 -11.47854928 22.41970424 -14.5625 19.9375 C-16.67697401 15.61661833 -16.64575514 11.72257072 -16 7 C-12.65693199 -0.85620982 -7.82478805 -1.91656871 0 0 Z " fill="#E6E2DF" transform="translate(350,430)"/>
<path d="M0 0 C2.1875 1.9375 2.1875 1.9375 3 5.625 C3.061875 6.718125 3.12375 7.81125 3.1875 8.9375 C-0.8125 8.9375 -0.8125 8.9375 -3.8125 6.9375 C-6.93771833 6.77050768 -6.93771833 6.77050768 -9.8125 6.9375 C-10.11392916 10.27707308 -10.11392916 10.27707308 -8.8125 13.9375 C-6.59934856 15.35340096 -6.59934856 15.35340096 -3.9375 16.4375 C1.79746304 18.94808468 1.79746304 18.94808468 3.375 22.3125 C4.60115793 27.78305079 4.02183547 31.23673924 1.5625 36.25 C-1.47713472 39.68958666 -3.26307806 40.40673411 -7.8125 40.9375 C-10.79240917 40.41787171 -13.27638556 39.60356058 -15.8125 37.9375 C-17.23728971 34.66886478 -16.92480019 32.27440056 -15.8125 28.9375 C-11.9375 30.8125 -11.9375 30.8125 -10.8125 31.9375 C-8.47952567 31.97842937 -6.14544775 31.97991723 -3.8125 31.9375 C-3.4825 29.6275 -3.1525 27.3175 -2.8125 24.9375 C-3.71742188 24.69966797 -3.71742188 24.69966797 -4.640625 24.45703125 C-8.47736667 23.33695022 -11.27279974 22.40973772 -14.3125 19.75 C-16.22921287 16.15616338 -17.13159545 12.98184925 -16.8125 8.9375 C-15.61786677 5.14003459 -14.32222627 1.86679366 -10.8515625 -0.26953125 C-6.96520609 -1.78089208 -3.85104693 -1.45483995 0 0 Z " fill="#E7E3E0" transform="translate(371.8125,430.0625)"/>
<path d="M0 0 C2 2 2 2 2.1953125 3.9453125 C2.13020833 5.96354167 2.06510417 7.98177083 2 10 C1.113125 9.484375 0.22625 8.96875 -0.6875 8.4375 C-4.20023331 6.9131063 -5.44706507 6.85052105 -9 8 C-9 10.31 -9 12.62 -9 15 C-8.38511719 15.17015625 -7.77023437 15.3403125 -7.13671875 15.515625 C-0.59896014 17.47590988 -0.59896014 17.47590988 2 19.75 C4.10231305 24.48020437 4.44891421 28.38574036 2.75 33.25 C1.62908799 36.10946941 0.47031088 38.12597105 -2 40 C-4.33984375 40.3984375 -4.33984375 40.3984375 -6.9375 40.375 C-8.21947266 40.38660156 -8.21947266 40.38660156 -9.52734375 40.3984375 C-12.49834921 39.91969728 -13.88338868 39.12634286 -16 37 C-16.25 33.3125 -16.25 33.3125 -16 30 C-13 30 -13 30 -10.0625 31.5 C-6.96964456 33.29324497 -6.96964456 33.29324497 -3 33 C-3 30.69 -3 28.38 -3 26 C-3.68707031 25.69707031 -4.37414062 25.39414062 -5.08203125 25.08203125 C-12.32549242 21.7141845 -12.32549242 21.7141845 -15.125 18.75 C-16.72923926 13.70810519 -16.87290544 9.00768252 -14.75 4.125 C-10.26672468 -1.31897717 -6.78342992 -1.74169147 0 0 Z " fill="#E4E0DC" transform="translate(419,430)"/>
<path d="M0 0 C1.66611905 -0.042721 3.33382885 -0.04063832 5 0 C6 1 6 1 6.09765625 3.28515625 C6.08605469 4.20167969 6.07445312 5.11820312 6.0625 6.0625 C6.05347656 6.98160156 6.04445312 7.90070313 6.03515625 8.84765625 C6.02355469 9.55792969 6.01195312 10.26820313 6 11 C7.423125 10.9071875 7.423125 10.9071875 8.875 10.8125 C9.90625 10.874375 10.9375 10.93625 12 11 C14 14 14 14 13.625 16.1875 C13.315625 17.0846875 13.315625 17.0846875 13 18 C10.69 18.33 8.38 18.66 6 19 C6.33 26.59 6.66 34.18 7 42 C9.46278801 43.231394 11.2795055 43.07159196 14 43 C14.1875 45.875 14.1875 45.875 14 49 C10.50875983 51.32749345 9.10777749 51.50299316 5 51 C1.21520895 48.2665398 0.14644415 45.43688776 -1 41 C-1.25611582 37.57866571 -1.23443928 34.17903815 -1.1875 30.75 C-1.18685547 29.83992188 -1.18621094 28.92984375 -1.18554688 27.9921875 C-1.14074248 21.28148496 -1.14074248 21.28148496 0 19 C-0.99 18.67 -1.98 18.34 -3 18 C-3.2149283 13.48650566 -2.50013508 10.23567553 -1 6 C-0.63079809 4.00630969 -0.28674418 2.00720923 0 0 Z " fill="#E2DEDC" transform="translate(194,419)"/>
<path d="M0 0 C1.66611905 -0.042721 3.33382885 -0.04063832 5 0 C6 1 6 1 6.12025452 3.09437561 C6.11803391 4.01592941 6.11581329 4.93748322 6.11352539 5.88696289 C6.11344986 6.92796646 6.11337433 7.96897003 6.11329651 9.04151917 C6.10813522 10.1737944 6.10297394 11.30606964 6.09765625 12.47265625 C6.0962413 13.62543564 6.09482635 14.77821503 6.09336853 15.96592712 C6.08775005 19.66481064 6.07519442 23.36363464 6.0625 27.0625 C6.05748738 29.56315017 6.05292406 32.06380129 6.04882812 34.56445312 C6.03777462 40.70965588 6.02101852 46.85482369 6 53 C4.35 53.66 2.7 54.32 1 55 C0 54 0 54 -0.12025452 51.82969666 C-0.11803391 50.87261307 -0.11581329 49.91552948 -0.11352539 48.92944336 C-0.11344986 47.84839828 -0.11337433 46.76735321 -0.11329651 45.65354919 C-0.10813522 44.4775264 -0.10297394 43.3015036 -0.09765625 42.08984375 C-0.0962413 40.89267227 -0.09482635 39.69550079 -0.09336853 38.46205139 C-0.08774979 34.62050934 -0.07519411 30.77902457 -0.0625 26.9375 C-0.05748741 24.34049563 -0.05292409 21.74349035 -0.04882812 19.14648438 C-0.03777427 12.76430321 -0.02101792 6.3821557 0 0 Z " fill="#DEDBD9" transform="translate(298,415)"/>
<path d="M0 0 C1.67293936 0.30027117 3.33985384 0.63557767 5 1 C7.27185143 1.05198752 7.27185143 1.05198752 10.5625 0.4375 C12.2640625 0.2209375 12.2640625 0.2209375 14 0 C15 1 15 1 15.0625 4.5625 C15.041875 5.696875 15.02125 6.83125 15 8 C12 9 12 9 9.375 9.5 C7.05538548 9.76252526 7.05538548 9.76252526 6 11 C5.8660964 12.97503095 5.79644769 14.95448596 5.75390625 16.93359375 C5.72103516 18.13951172 5.68816406 19.34542969 5.65429688 20.58789062 C5.59319421 23.15030258 5.53589052 25.712808 5.48242188 28.27539062 C5.44826172 29.48259766 5.41410156 30.68980469 5.37890625 31.93359375 C5.34132202 33.6050647 5.34132202 33.6050647 5.30297852 35.31030273 C5 38 5 38 3 40 C0.875 39.625 0.875 39.625 -1 39 C-1.92084358 34.39355782 -2.06083641 30.13989247 -1.9140625 25.44921875 C-1.89282318 24.74980667 -1.87158386 24.05039459 -1.84970093 23.32978821 C-1.80372169 21.86323901 -1.75481992 20.39677877 -1.703125 18.93041992 C-1.62463788 16.6771038 -1.55778955 14.42364611 -1.4921875 12.16992188 C-1.44600081 10.74216507 -1.39914976 9.31442956 -1.3515625 7.88671875 C-1.30854004 6.58951904 -1.26551758 5.29231934 -1.22119141 3.95581055 C-1 1 -1 1 0 0 Z " fill="#E2DEDB" transform="translate(237,430)"/>
<path d="M0 0 C4.69228894 -0.61714865 8.48413876 -0.88554705 12.66796875 1.55859375 C14.86698184 3.29612873 16.96534111 5.07346308 19 7 C18.67 8.32 18.34 9.64 18 11 C10.91953003 10.39740681 3.89309555 8.41956785 -1 3 C-0.67 2.01 -0.34 1.02 0 0 Z " fill="#E9E5E3" transform="translate(258,29)"/>
<path d="M0 0 C1.875 1.625 1.875 1.625 3 4 C2.57446809 9.42553191 2.57446809 9.42553191 1 11 C-2.375 11.3125 -2.375 11.3125 -6 11 C-8 9.3125 -8 9.3125 -9 7 C-8.875 4.375 -8.875 4.375 -8 2 C-4.77856724 -0.14762184 -3.7404533 -0.561068 0 0 Z " fill="#D9D4D2" transform="translate(260,361)"/>
<path d="M0 0 C1.2065625 0.0309375 1.2065625 0.0309375 2.4375 0.0625 C3.0975 1.3825 3.7575 2.7025 4.4375 4.0625 C3.4475 5.5475 3.4475 5.5475 2.4375 7.0625 C0.7875 6.7325 -0.8625 6.4025 -2.5625 6.0625 C-2.94468767 4.40635343 -3.27645102 2.73792976 -3.5625 1.0625 C-2.5625 0.0625 -2.5625 0.0625 0 0 Z " fill="#DEDAD7" transform="translate(282.5625,26.9375)"/>
<path d="M0 0 C0.99 0 1.98 0 3 0 C3.33 0.66 3.66 1.32 4 2 C6.01669827 3.13350534 6.01669827 3.13350534 8 4 C5.69 4.33 3.38 4.66 1 5 C0.67 3.35 0.34 1.7 0 0 Z " fill="#363D3C" transform="translate(362,125)"/>
</svg>
